<svg width="800.000000pt" height="600.000000pt" viewBox="0 0 800.000000 600.000000" xmlns="http://www.w3.org/2000/svg">
  <g transform="translate(0.000000,600.000000) scale(0.100000,-0.100000)" fill="#6e6e6e" stroke="none">
    <path d="M0 3000 c0 -3000 0 -3000 4000 -3000 4000 0 4000 0 4000 3000 0 3000
0 3000 -4000 3000 -4000 0 -4000 0 -4000 -3000z m3736 2526 c39 -26 64 -75 64
-127 0 -25 9 -106 20 -179 12 -74 25 -174 30 -224 5 -50 14 -134 20 -186 98
-890 314 -1032 1373 -905 117 14 220 30 229 35 64 36 193 -14 233 -91 60 -114
14 -299 -75 -299 -9 0 -21 -5 -27 -11 -10 -10 -46 -22 -210 -68 -34 -9 -66
-20 -69 -24 -4 -4 -16 -7 -26 -7 -10 0 -26 -4 -36 -9 -9 -5 -48 -19 -87 -31
-38 -12 -83 -28 -100 -35 -16 -7 -46 -18 -65 -25 -110 -40 -319 -138 -374
-175 -20 -14 -51 -32 -68 -41 -18 -9 -37 -22 -44 -28 -6 -6 -26 -22 -43 -36
-17 -14 -59 -52 -92 -85 -166 -162 -240 -327 -286 -630 -7 -50 -10 -552 -4
-675 3 -67 2 -129 -4 -149 -45 -153 -379 -207 -436 -70 -6 16 -15 29 -19 29
-4 0 -13 39 -19 88 -113 882 -311 1302 -699 1479 -178 81 -506 155 -802 179
-125 11 -215 25 -218 34 -2 6 -10 10 -18 10 -63 0 -110 73 -100 157 14 121 76
186 187 197 1020 106 1235 279 1295 1046 2 25 6 204 9 398 3 208 9 361 15 372
44 82 359 142 446 86z" />
    <path d="M3579 4681 c-59 -19 -69 -29 -69 -76 0 -33 4 -45 15 -45 10 0 15 11
15 35 0 43 20 55 101 62 59 6 59 6 59 -41 0 -34 4 -46 15 -46 20 0 21 86 1
106 -16 15 -93 18 -137 5z" />
    <path d="M3710 4535 c0 -16 6 -25 15 -25 9 0 15 9 15 25 0 16 -6 25 -15 25 -9
0 -15 -9 -15 -25z" />
    <path d="M3720 4445 c0 -24 5 -35 15 -35 10 0 15 11 15 35 0 24 -5 35 -15 35
-10 0 -15 -11 -15 -35z" />
    <path d="M3510 4315 c0 -69 3 -85 15 -85 12 0 15 16 15 85 0 69 -3 85 -15 85
-12 0 -15 -16 -15 -85z" />
    <path d="M3730 4360 c0 -11 7 -20 15 -20 8 0 15 9 15 20 0 11 -7 20 -15 20 -8
0 -15 -9 -15 -20z" />
    <path d="M3730 4315 c0 -8 7 -15 15 -15 8 0 15 7 15 15 0 8 -7 15 -15 15 -8 0
-15 -7 -15 -15z" />
    <path d="M3740 4255 c0 -8 7 -15 15 -15 8 0 15 7 15 15 0 8 -7 15 -15 15 -8 0
-15 -7 -15 -15z" />
    <path d="M3740 4205 c0 -8 7 -15 15 -15 8 0 15 7 15 15 0 8 -7 15 -15 15 -8 0
-15 -7 -15 -15z" />
    <path d="M3500 4120 c0 -29 4 -40 15 -40 11 0 15 11 15 40 0 29 -4 40 -15 40
-11 0 -15 -11 -15 -40z" />
    <path d="M3750 4138 c1 -74 65 -301 94 -331 7 -6 15 -20 19 -30 4 -11 16 -21
26 -24 11 -3 21 -13 24 -24 3 -10 13 -22 24 -26 10 -4 24 -12 31 -19 32 -32
172 -56 172 -29 0 10 -10 15 -30 15 -41 0 -142 39 -158 62 -7 10 -20 18 -28
18 -8 0 -14 6 -14 14 0 8 -8 21 -18 28 -35 25 -92 191 -107 312 -7 56 -35 83
-35 34z" />
    <path d="M3490 4025 c0 -16 6 -25 15 -25 9 0 15 9 15 25 0 16 -6 25 -15 25 -9
0 -15 -9 -15 -25z" />
    <path d="M3465 3913 c-49 -184 -166 -304 -332 -338 -35 -7 -46 -35 -14 -35 39
0 191 65 191 82 0 4 5 8 11 8 13 0 89 71 89 83 0 4 8 17 18 27 18 20 65 145
77 208 13 66 -21 36 -40 -35z" />
    <path d="M4578 3703 c-34 -5 -38 -33 -5 -33 38 0 67 12 67 26 0 14 -9 15 -62
7z" />
    <path d="M4650 3695 c0 -8 6 -15 14 -15 16 0 31 -68 22 -98 -6 -19 -70 -55
-118 -67 -31 -8 -38 -35 -9 -35 61 0 161 72 161 115 0 44 -13 85 -26 85 -8 0
-14 7 -14 15 0 8 -7 15 -15 15 -8 0 -15 -7 -15 -15z" />
    <path d="M4448 3683 c-30 -5 -39 -33 -10 -33 33 0 62 12 62 26 0 8 -6 13 -12
13 -7 -1 -25 -4 -40 -6z" />
    <path d="M4320 3655 c0 -11 12 -15 45 -15 33 0 45 4 45 15 0 11 -12 15 -45 15
-33 0 -45 -4 -45 -15z" />
    <path d="M4170 3645 c0 -8 9 -15 20 -15 11 0 20 7 20 15 0 8 -9 15 -20 15 -11
0 -20 -7 -20 -15z" />
    <path d="M4230 3645 c0 -8 7 -15 15 -15 8 0 15 7 15 15 0 8 -7 15 -15 15 -8 0
-15 -7 -15 -15z" />
    <path d="M3030 3535 c0 -8 7 -15 15 -15 8 0 15 7 15 15 0 8 -7 15 -15 15 -8 0
-15 -7 -15 -15z" />
    <path d="M2928 3533 c-39 -4 -56 -33 -19 -33 53 0 111 14 111 26 0 14 -13 15
-92 7z" />
    <path d="M2840 3505 c0 -8 9 -15 20 -15 11 0 20 7 20 15 0 8 -9 15 -20 15 -11
0 -20 -7 -20 -15z" />
    <path d="M2765 3480 c-40 -78 -17 -122 73 -137 52 -9 42 22 -10 33 -57 12 -67
104 -13 104 8 0 15 7 15 15 0 28 -48 18 -65 -15z" />
    <path d="M4410 3451 c-159 -64 -400 -228 -400 -273 0 -4 -12 -19 -26 -35 -58
-63 -128 -273 -90 -273 9 0 17 16 21 43 7 39 54 146 93 211 28 46 118 130 190
179 77 51 294 157 321 157 6 0 11 7 11 15 0 22 -14 19 -120 -24z" />
    <path d="M2880 3345 c0 -8 9 -15 20 -15 11 0 20 7 20 15 0 8 -9 15 -20 15 -11
0 -20 -7 -20 -15z" />
    <path d="M2960 3335 c0 -9 9 -15 24 -15 13 0 38 -3 55 -6 24 -5 31 -3 31 9 0
8 -13 17 -31 21 -52 10 -79 7 -79 -9z" />
    <path d="M3080 3317 c0 -7 30 -20 68 -31 114 -31 307 -147 311 -187 1 -4 16
-30 35 -58 39 -58 87 -176 118 -292 17 -64 48 -111 48 -73 0 113 -126 390
-220 484 -97 98 -360 213 -360 157z" />
    <path d="M3870 2835 c0 -16 6 -25 15 -25 9 0 15 9 15 25 0 16 -6 25 -15 25 -9
0 -15 -9 -15 -25z" />
    <path d="M3860 2710 c0 -47 3 -60 15 -60 12 0 15 13 15 60 0 47 -3 60 -15 60
-12 0 -15 -13 -15 -60z" />
    <path d="M3640 2640 c0 -11 7 -20 15 -20 8 0 15 9 15 20 0 11 -7 20 -15 20 -8
0 -15 -9 -15 -20z" />
    <path d="M3650 2580 c0 -11 7 -20 15 -20 8 0 15 9 15 20 0 11 -7 20 -15 20 -8
0 -15 -9 -15 -20z" />
    <path d="M3660 2510 c0 -11 7 -20 15 -20 8 0 15 9 15 20 0 11 -7 20 -15 20 -8
0 -15 -9 -15 -20z" />
    <path d="M3670 2440 c0 -20 5 -30 15 -30 10 0 15 10 15 30 0 20 -5 30 -15 30
-10 0 -15 -10 -15 -30z" />
    <path d="M3860 2350 c0 -80 0 -80 -32 -100 -58 -35 -95 -28 -103 20 -4 25 -12
40 -21 40 -19 0 -18 -54 1 -74 8 -8 15 -19 15 -25 0 -37 144 3 160 44 17 44
13 175 -5 175 -12 0 -15 -16 -15 -80z" />
    <path d="M3680 2365 c0 -24 5 -35 15 -35 10 0 15 11 15 35 0 24 -5 35 -15 35
-10 0 -15 -11 -15 -35z" />
  </g>
  <g transform="translate(0.000000,600.000000) scale(0.100000,-0.100000)" fill="#444444" stroke="none">
    <path d="M3455 5539 c-86 -21 -159 -58 -175 -89 -7 -12 -13 -155 -16 -372 -5
-376 -5 -379 -24 -545 -13 -116 -13 -113 -29 -188 -90 -401 -320 -578 -856
-659 -70 -11 -367 -48 -401 -51 -172 -12 -258 -291 -113 -366 22 -11 39 -16
39 -12 0 5 4 2 8 -5 8 -11 85 -24 222 -36 76 -7 259 -33 355 -51 44 -8 91 -16
105 -19 14 -2 45 -9 70 -16 25 -7 50 -13 55 -14 447 -84 741 -492 861 -1196 2
-14 7 -41 10 -60 3 -19 8 -51 10 -70 2 -19 7 -47 10 -62 3 -15 7 -42 9 -60 14
-119 28 -198 35 -198 4 0 13 -13 20 -29 58 -142 414 -85 457 72 4 12 5 74 3
137 -10 370 -3 657 19 770 16 82 18 91 30 140 7 25 14 54 16 64 26 111 178
316 316 426 17 14 38 31 45 38 8 7 14 11 14 7 0 -3 6 -1 13 5 27 24 126 83
192 114 99 48 206 94 265 116 19 7 49 18 65 25 17 7 62 23 100 35 39 12 78 26
87 31 10 5 27 9 37 9 11 0 23 5 26 10 3 6 14 10 24 10 10 0 47 9 82 21 35 12
75 23 89 26 14 2 43 13 66 23 22 11 45 20 51 20 11 0 83 66 84 78 0 4 3 16 5
27 33 138 -22 271 -125 303 -49 14 -125 16 -149 2 -87 -49 -896 -93 -1022 -55
-8 2 -26 6 -40 9 -250 44 -441 302 -486 656 -3 25 -7 52 -9 60 -3 8 -7 42 -10
75 -3 33 -10 96 -16 140 -5 44 -12 107 -15 140 -3 33 -16 134 -30 225 -13 91
-24 186 -24 211 0 131 -139 182 -355 128z m254 -848 c20 -20 25 -42 35 -141 3
-30 15 -146 26 -257 39 -394 87 -515 230 -582 89 -42 399 -37 608 10 127 28
163 -164 40 -215 -24 -10 -52 -22 -63 -27 -11 -5 -57 -22 -102 -38 -45 -17
-90 -34 -100 -40 -10 -5 -47 -24 -83 -41 -163 -81 -279 -191 -340 -323 -60
-127 -69 -228 -70 -764 0 -26 -51 -71 -95 -83 -83 -23 -106 16 -130 220 -80
662 -220 833 -740 905 -165 23 -198 48 -176 133 16 59 45 76 148 91 518 75
603 199 603 887 0 211 0 211 25 234 46 44 153 62 184 31z" />
  </g>
  <g transform="translate(0.000000,600.000000) scale(0.100000,-0.100000)" fill="#737373" stroke="none">
    <path d="M3598 4666 c3 -5 -5 -6 -18 -3 -56 14 -58 6 -55 -218 2 -144 0 -203
-7 -199 -8 5 -9 -18 -4 -75 5 -63 4 -81 -5 -75 -9 5 -11 -5 -6 -40 5 -34 4
-45 -4 -40 -8 5 -10 -3 -7 -24 2 -18 0 -28 -5 -25 -5 3 -6 -8 -2 -27 5 -24 4
-31 -5 -25 -9 5 -10 1 -5 -15 5 -16 4 -20 -5 -15 -9 5 -10 1 -5 -15 5 -17 4
-21 -6 -15 -9 6 -11 2 -7 -13 4 -12 2 -20 -2 -17 -11 6 -23 -31 -15 -44 3 -5
0 -13 -6 -17 -8 -5 -9 -3 -4 6 6 9 4 11 -4 6 -7 -5 -10 -14 -7 -22 3 -8 0 -13
-7 -11 -7 1 -12 -6 -12 -15 0 -10 -9 -25 -20 -35 -19 -18 -19 -18 0 7 13 16 6
13 -18 -9 -39 -36 -50 -53 -19 -30 15 11 15 11 4 -1 -7 -8 -20 -15 -30 -15 -9
0 -16 -5 -15 -12 2 -7 -3 -10 -10 -7 -7 2 -21 -3 -32 -12 -11 -8 -14 -12 -6
-8 10 5 12 3 7 -5 -5 -7 -14 -10 -22 -7 -19 7 -45 -4 -38 -16 4 -6 -2 -7 -16
-3 -17 5 -21 4 -15 -6 6 -9 2 -11 -13 -7 -14 4 -20 2 -16 -4 4 -7 -5 -8 -25
-3 -33 7 -74 -2 -66 -14 2 -5 -7 -6 -22 -3 -19 4 -24 2 -18 -7 5 -10 -4 -11
-40 -5 -36 5 -46 4 -40 -5 5 -9 -3 -10 -30 -5 -27 5 -36 4 -31 -4 5 -8 -3 -10
-25 -5 -25 5 -30 3 -24 -7 6 -10 3 -12 -14 -7 -28 7 -37 -14 -35 -78 2 -47 3
-50 28 -48 15 1 24 -2 20 -8 -3 -6 5 -7 22 -3 21 5 25 4 19 -6 -6 -10 -1 -12
24 -7 23 5 30 3 25 -5 -5 -8 10 -9 55 -4 48 6 61 4 55 -5 -5 -9 0 -10 20 -5
18 4 25 3 21 -3 -8 -14 39 -25 71 -17 18 5 24 3 19 -5 -5 -8 -1 -9 15 -4 16 5
20 4 15 -4 -5 -8 1 -10 21 -5 19 5 25 4 20 -5 -9 -14 38 -33 61 -24 10 4 14 2
10 -4 -4 -6 0 -14 9 -17 9 -4 13 -2 8 5 -4 8 0 7 15 0 11 -7 21 -14 21 -17 0
-3 -6 -2 -12 1 -7 4 -2 -3 12 -14 14 -11 30 -19 35 -17 17 6 84 -65 77 -82 -4
-11 -1 -14 9 -10 9 4 21 -3 29 -15 12 -21 12 -21 -5 -7 -18 15 -18 14 -1 -12
17 -26 35 -41 20 -16 -4 7 -3 8 5 4 6 -4 9 -11 6 -16 -7 -11 36 -100 46 -95
11 7 18 -21 12 -46 -5 -17 -3 -20 7 -14 9 5 11 4 6 -4 -10 -16 3 -53 16 -45 6
4 8 -1 3 -16 -5 -16 -4 -20 4 -15 8 5 10 -1 5 -21 -5 -19 -4 -25 5 -20 9 6 10
0 5 -20 -5 -19 -4 -25 5 -20 9 6 10 0 5 -20 -4 -17 -3 -25 3 -21 6 4 8 -4 5
-20 -3 -17 -1 -24 6 -19 7 4 9 -5 5 -30 -4 -25 -3 -35 4 -31 8 5 9 -7 6 -35
-4 -28 -3 -39 5 -34 7 4 9 -5 5 -30 -5 -28 -3 -35 7 -29 9 6 11 -2 5 -35 -5
-32 -4 -41 5 -35 9 6 11 -5 5 -45 -6 -41 -4 -51 5 -45 10 6 12 1 8 -18 -3 -15
-1 -24 3 -21 5 3 8 -4 6 -16 -2 -19 3 -22 50 -23 28 -1 49 1 47 5 -3 5 1 9 8
10 7 0 18 2 23 2 28 4 35 18 28 58 -4 30 -3 39 5 34 7 -4 12 -1 12 9 0 9 -3
14 -7 12 -5 -3 -8 84 -8 193 0 109 4 196 9 193 4 -3 7 17 5 45 -2 28 0 48 5
45 5 -4 7 12 3 35 -3 27 -1 40 5 36 7 -4 8 5 3 26 -5 25 -4 31 6 25 9 -6 11
-2 7 13 -4 14 -2 20 4 16 6 -4 8 2 3 16 -4 14 -3 20 3 16 12 -7 23 19 16 38
-3 8 0 17 7 22 8 5 10 3 4 -6 -5 -9 -4 -11 4 -6 6 4 10 15 7 24 -3 10 6 30 21
47 14 17 22 23 17 15 -7 -13 -6 -13 10 -1 9 8 15 20 12 27 -2 7 5 20 17 31 22
18 22 18 2 -7 -11 -14 4 -3 33 25 51 49 68 70 35 44 -16 -13 -17 -12 -5 3 8 9
19 15 26 12 7 -3 19 3 27 13 13 16 12 17 -3 4 -10 -7 -18 -11 -18 -8 0 3 15
16 33 28 24 17 28 19 17 5 -10 -12 0 -9 32 10 26 15 45 31 42 35 -2 4 3 10 12
13 9 4 13 2 8 -5 -4 -8 0 -7 15 0 22 12 30 27 9 16 -7 -4 -4 1 6 9 12 9 28 13
39 10 11 -4 17 -2 14 3 -9 14 39 34 60 26 11 -4 14 -3 9 5 -7 12 4 16 38 12
10 -1 15 3 12 8 -4 6 3 8 16 4 12 -3 19 -1 15 5 -3 5 4 9 16 9 14 -1 21 4 19
13 -2 9 4 12 18 8 12 -3 18 -1 14 5 -4 6 2 8 16 3 14 -5 20 -3 16 3 -3 6 2 8
13 5 10 -3 22 1 26 8 5 8 4 10 -3 5 -7 -4 -12 -5 -12 -2 0 3 10 10 21 17 15 7
19 8 15 0 -5 -7 -1 -8 9 -5 9 4 14 13 11 21 -3 8 -2 12 2 9 4 -2 7 18 8 44 0
27 -3 47 -8 44 -4 -3 -7 5 -5 18 1 17 -3 23 -15 22 -10 -1 -15 2 -12 7 3 5 -7
9 -21 9 -17 0 -24 -4 -19 -11 4 -8 -1 -9 -16 -4 -15 5 -20 4 -16 -4 5 -8 -11
-9 -55 -4 -43 4 -60 3 -56 -4 5 -7 -1 -9 -15 -5 -15 4 -19 2 -14 -7 6 -9 -1
-11 -29 -5 -29 5 -36 4 -30 -5 5 -10 -12 -11 -75 -5 -48 4 -81 3 -77 -2 3 -5
-10 -9 -28 -10 -19 0 -31 4 -28 9 4 6 -16 7 -52 2 -44 -5 -56 -4 -50 6 6 9 2
11 -13 7 -14 -4 -20 -2 -16 4 5 7 -2 9 -20 4 -17 -4 -25 -3 -22 3 7 11 -22 24
-35 15 -5 -3 -8 0 -7 8 2 7 -4 13 -12 13 -21 1 -41 15 -35 25 3 4 -2 13 -10
20 -8 7 -15 9 -15 4 0 -4 -6 -2 -12 4 -7 7 -13 20 -13 30 0 9 -5 16 -12 15 -8
-2 -10 4 -6 14 5 12 3 14 -7 8 -8 -5 -11 -4 -7 3 10 14 -3 43 -15 36 -6 -4 -7
2 -3 16 5 14 3 20 -3 16 -6 -4 -8 2 -4 16 4 15 2 19 -7 13 -10 -6 -11 -2 -6
15 5 16 4 20 -4 15 -8 -5 -10 1 -5 21 5 20 4 25 -6 19 -9 -6 -10 0 -5 25 5 25
4 31 -5 25 -10 -6 -11 1 -6 30 5 23 4 35 -3 31 -6 -4 -7 21 -4 70 4 45 2 75
-3 71 -5 -3 -7 19 -6 50 3 33 0 53 -6 50 -5 -4 -7 14 -4 45 3 36 2 49 -6 44
-9 -5 -10 6 -5 40 5 36 3 45 -6 40 -9 -6 -11 1 -5 29 5 27 4 36 -5 31 -7 -5
-11 1 -11 14 0 12 5 18 10 15 6 -3 10 3 10 15 0 13 -4 19 -11 14 -7 -4 -9 0
-5 12 5 17 0 19 -58 19 -36 0 -62 -4 -58 -9z m102 -698 c5 -13 16 -81 24 -151
30 -250 81 -291 326 -266 158 16 174 12 168 -45 -3 -30 -7 -32 -108 -67 -271
-93 -321 -153 -324 -388 -2 -146 -8 -161 -67 -161 -33 0 -45 14 -54 65 -51
313 -122 396 -356 420 -104 11 -129 22 -129 55 0 37 4 39 124 60 226 40 259
82 272 343 7 148 12 157 76 157 30 0 40 -5 48 -22z" />
    <path d="M3410 3155 c19 -19 36 -35 39 -35 3 0 -10 16 -29 35 -19 19 -36 35
-39 35 -3 0 10 -16 29 -35z" />
  </g>
  <g transform="translate(0.000000,600.000000) scale(0.100000,-0.100000)" fill="#848484" stroke="none">
    <path d="M3587 3988 c-14 -11 -18 -35 -22 -143 -9 -260 -45 -305 -271 -345
-123 -21 -124 -22 -124 -70 0 -45 17 -53 129 -65 234 -24 305 -107 356 -420 9
-53 20 -65 64 -65 70 0 76 11 77 162 3 234 53 294 324 387 105 36 105 36 108
77 5 70 -11 75 -181 56 -233 -25 -283 17 -313 265 -19 169 -21 173 -82 173
-26 0 -56 -6 -65 -12z m106 -313 c15 -165 38 -189 172 -183 100 4 107 -13 21
-49 -123 -52 -156 -99 -156 -227 0 -114 -32 -155 -45 -58 -25 177 -57 221
-176 246 -75 15 -85 36 -24 49 123 26 155 72 155 222 0 75 4 88 30 83 11 -3
17 -23 23 -83z" />
  </g>
  <g transform="translate(0.000000,600.000000) scale(0.100000,-0.100000)" fill="#8a8a8a" stroke="none">
    <path d="M3653 3769 c-21 -8 -23 -15 -23 -82 0 -152 -31 -198 -155 -224 -70
-14 -57 -53 24 -69 119 -25 151 -69 176 -246 5 -42 9 -48 30 -48 30 0 35 16
35 106 0 128 33 175 156 227 96 41 87 90 -13 74 -130 -22 -166 12 -179 171 -7
88 -16 104 -51 91z" />
    <path d="M4125 3570 c-28 -7 -28 -8 -5 -9 14 0 32 4 40 9 17 11 8 11 -35 0z" />
    <path d="M3512 3300 c16 -14 40 -38 54 -55 14 -16 21 -21 15 -10 -9 20 -53 63
-81 81 -9 5 -3 -2 12 -16z" />
  </g>
  <g transform="translate(0.000000,600.000000) scale(0.100000,-0.100000)" fill="#515151" stroke="none">
    <path d="M3630 4711 c0 -4 19 -12 43 -17 42 -9 42 -9 51 -66 10 -63 26 -78 26
-24 0 46 -18 94 -40 106 -23 12 -80 13 -80 1z" />
    <path d="M3560 4699 c-59 -24 -70 -46 -70 -136 0 -67 3 -83 15 -83 12 0 15 15
15 78 0 82 12 102 73 125 20 7 23 27 5 26 -7 0 -24 -5 -38 -10z" />
    <path d="M3744 4445 c13 -249 44 -455 68 -455 10 0 10 15 -2 65 -5 22 -19 139
-31 260 -23 237 -46 321 -35 130z" />
    <path d="M3490 4348 c0 -589 -104 -727 -603 -799 -109 -15 -150 -38 -69 -39
29 0 63 5 75 12 12 7 73 20 135 29 211 32 388 142 414 259 4 14 18 66 33 115
30 101 52 545 26 545 -7 0 -11 -39 -11 -122z" />
    <path d="M3820 3942 c0 -86 112 -222 212 -258 84 -31 448 -16 448 17 0 5 -18
6 -42 2 -113 -20 -370 -9 -428 18 -76 36 -169 154 -170 216 0 6 -4 15 -10 18
-5 3 -10 -3 -10 -13z" />
    <path d="M4615 3730 c-3 -5 3 -10 14 -10 12 0 21 5 21 10 0 6 -6 10 -14 10 -8
0 -18 -4 -21 -10z" />
    <path d="M4670 3721 c0 -13 29 -35 37 -28 7 8 -15 37 -28 37 -5 0 -9 -4 -9 -9z" />
    <path d="M4495 3710 c-3 -5 3 -10 14 -10 12 0 21 5 21 10 0 6 -6 10 -14 10 -8
0 -18 -4 -21 -10z" />
    <path d="M4705 3633 c10 -75 -8 -90 -205 -168 -91 -37 -176 -74 -190 -83 -14
-9 -42 -24 -63 -34 -116 -53 -259 -207 -314 -336 -43 -103 -69 -374 -57 -603
9 -171 -18 -221 -111 -203 -42 8 -61 42 -70 129 -24 237 -67 445 -92 445 -16
0 -17 11 7 -95 10 -50 28 -162 40 -250 30 -236 47 -272 121 -262 125 17 130
29 133 363 4 493 85 655 406 814 36 17 73 36 83 41 10 6 55 23 100 40 227 82
254 106 238 203 -10 62 -35 61 -26 -1z" />
    <path d="M2741 3463 c-20 -70 13 -143 64 -143 37 0 280 -42 345 -60 205 -56
328 -170 402 -372 28 -76 44 -105 54 -96 4 4 -6 42 -21 85 -74 210 -173 315
-360 380 -152 53 -222 71 -315 79 -121 11 -181 56 -150 114 13 24 13 50 0 50
-5 0 -14 -17 -19 -37z" />
  </g>
  <g transform="translate(0.000000,600.000000) scale(0.100000,-0.100000)" fill="#626262" stroke="none">
    <path d="M3593 4699 c-22 -10 -46 -25 -53 -34 -15 -18 -15 -18 35 0 112 40
140 21 149 -100 8 -102 26 -141 26 -54 -2 175 -53 236 -157 188z" />
    <path d="M3507 4490 c-4 -74 -9 -209 -11 -300 -4 -140 -9 -179 -31 -255 -15
-49 -30 -103 -34 -120 -30 -118 -199 -222 -413 -254 -62 -9 -123 -22 -135 -29
-12 -7 -42 -12 -66 -12 -40 0 -75 -18 -62 -32 3 -3 0 -17 -6 -32 -13 -28 5
-111 22 -100 5 3 9 1 9 -4 0 -5 6 -9 13 -10 6 -1 50 -7 97 -13 250 -30 422
-100 538 -215 100 -101 111 -107 56 -33 -110 150 -245 214 -549 259 -156 23
-175 31 -175 70 0 73 17 85 147 104 506 77 596 204 617 861 4 99 2 196 -2 215
-7 27 -10 4 -15 -100z" />
    <path d="M3741 4425 c0 -5 6 -77 14 -160 58 -602 181 -683 863 -569 48 8 81
-12 83 -50 0 -16 3 -13 10 9 20 68 -29 88 -156 65 -282 -53 -292 -54 -403 -43
-63 6 -108 15 -110 21 -2 7 -8 10 -13 6 -11 -7 -79 34 -79 47 0 6 -4 8 -9 4
-18 -10 -91 118 -110 192 -6 21 -22 83 -36 138 -15 59 -25 125 -25 160 1 33 1
62 0 65 -1 3 -8 32 -15 65 -7 33 -13 56 -14 50z" />
    <path d="M4620 3514 c-19 -9 -55 -22 -80 -31 -56 -19 -130 -52 -130 -58 0 -7
172 56 220 81 51 26 44 31 -10 8z" />
    <path d="M4280 3369 c-229 -127 -393 -344 -389 -519 0 -21 29 69 32 101 4 33
82 171 125 217 17 20 32 38 32 42 0 10 136 109 176 128 45 21 114 62 114 68 0
9 -19 1 -90 -37z" />
    <path d="M3551 2953 c-1 -17 40 -125 45 -120 3 2 -6 33 -20 68 -14 35 -25 59
-25 52z" />
    <path d="M3885 2820 c-12 -19 -17 -428 -5 -435 7 -4 8 16 5 62 -4 37 -2 138 3
223 9 159 9 169 -3 150z" />
    <path d="M3882 2323 c-5 -89 -112 -154 -159 -95 -13 15 -13 15 -3 -5 40 -84
176 -12 167 89 -3 33 -4 36 -5 11z" />
  </g>
  <g transform="translate(0.000000,600.000000) scale(0.100000,-0.100000)" fill="#5a5a5a" stroke="none">
    <path d="M3743 4500 c0 -47 2 -66 4 -42 2 23 2 61 0 85 -2 23 -4 4 -4 -43z" />
    <path d="M3497 4433 c8 -89 13 -93 13 -10 0 36 -4 69 -10 72 -6 4 -7 -19 -3
-62z" />
    <path d="M3493 4055 c0 -22 2 -30 4 -17 2 12 2 30 0 40 -3 9 -5 -1 -4 -23z" />
    <path d="M3434 3846 c-6 -6 -8 -20 -4 -31 6 -16 8 -15 13 10 6 35 6 37 -9 21z" />
    <path d="M3245 3634 c-44 -24 -77 -43 -72 -44 13 0 145 69 152 80 3 5 5 9 3 9
-2 -1 -39 -21 -83 -45z" />
    <path d="M4108 3673 c12 -2 30 -2 40 0 9 3 -1 5 -23 4 -22 0 -30 -2 -17 -4z" />
    <path d="M3420 3125 c35 -36 67 -65 69 -65 3 0 -24 29 -59 65 -35 36 -67 65
-69 65 -3 0 24 -29 59 -65z" />
    <path d="M3596 2798 c8 -28 12 -33 20 -25 4 4 2 13 -4 20 -7 8 -9 17 -5 20 3
4 1 7 -6 7 -8 0 -10 -8 -5 -22z" />
    <path d="M3883 2385 c0 -27 2 -38 4 -22 2 15 2 37 0 50 -2 12 -4 0 -4 -28z" />
  </g>
  <g transform="translate(0.000000,600.000000) scale(0.100000,-0.100000)" fill="#7d7d7d" stroke="none" />
  <g transform="translate(0.000000,600.000000) scale(0.100000,-0.100000)" fill="#939393" stroke="none" />
  <g transform="translate(0.000000,600.000000) scale(0.100000,-0.100000)" fill="#a2a2a2" stroke="none" />
  <g transform="translate(0.000000,600.000000) scale(0.100000,-0.100000)" fill="#9c9c9c" stroke="none" />
  <g transform="translate(0.000000,600.000000) scale(0.100000,-0.100000)" fill="#4d4d4d" stroke="none">
    <path d="M2763 3343 c9 -9 20 -13 24 -9 4 4 1 11 -7 16 -25 16 -35 11 -17 -7z" />
    <path d="M3580 2808 c0 -19 18 -43 25 -36 9 9 -4 48 -16 48 -5 0 -9 -6 -9 -12z" />
  </g>
  <g transform="translate(0.000000,600.000000) scale(0.100000,-0.100000)" fill="#000000" stroke="none" />
  <g transform="translate(0.000000,600.000000) scale(0.100000,-0.100000)" fill="#ff00ff" stroke="none" />
  <g transform="translate(0.000000,600.000000) scale(0.100000,-0.100000)" fill="#00ffff" stroke="none" />
  <g transform="translate(0.000000,600.000000) scale(0.100000,-0.100000)" fill="#ffffff" stroke="none" />
  <g transform="translate(0.000000,600.000000) scale(0.100000,-0.100000)" fill="#000000" stroke="none" />
  <g transform="translate(0.000000,600.000000) scale(0.100000,-0.100000)" fill="#000000" stroke="none" />
  <g transform="translate(0.000000,600.000000) scale(0.100000,-0.100000)" fill="#000000" stroke="none" />
  <g transform="translate(0.000000,600.000000) scale(0.100000,-0.100000)" fill="#000000" stroke="none" />
  <g transform="translate(0.000000,600.000000) scale(0.100000,-0.100000)" fill="#000000" stroke="none" />
  <g transform="translate(0.000000,600.000000) scale(0.100000,-0.100000)" fill="#000000" stroke="none" />
  <g transform="translate(0.000000,600.000000) scale(0.100000,-0.100000)" fill="#000000" stroke="none" />
  <g transform="translate(0.000000,600.000000) scale(0.100000,-0.100000)" fill="#000000" stroke="none" />
</svg>