<svg width="400.000000pt" height="1200.000000pt" viewBox="0 0 400.000000 1200.000000" xmlns="http://www.w3.org/2000/svg">
  <g transform="translate(0.000000,1200.000000) scale(0.100000,-0.100000)" fill="#fefefe" stroke="none">
    <path d="M0 6000 c0 -6000 0 -6000 1190 -6000 702 0 1190 4 1190 9 0 59 -140
230 -434 530 -449 458 -609 678 -754 1036 -257 634 -167 1378 269 2235 83 163
124 226 210 322 108 119 239 268 319 362 41 49 89 104 106 122 209 226 460
639 547 904 221 668 61 1397 -489 2227 -52 77 -117 164 -145 193 -28 29 -56
64 -62 79 -7 14 -55 94 -108 176 -492 764 -689 1381 -609 1900 16 110 80 328
105 361 8 10 15 26 15 35 0 9 22 53 50 99 27 46 50 89 50 97 0 7 4 13 9 13 5
0 11 10 15 23 10 42 131 219 191 281 17 17 46 54 64 81 19 28 59 79 90 115
108 125 273 350 314 430 13 25 47 90 76 145 29 55 59 120 66 145 7 25 16 53
20 63 7 16 -51 17 -1144 17 -1151 0 -1151 0 -1151 -6000z m904 4055 c146 -69
149 -256 7 -330 -39 -19 -152 -17 -159 3 -2 7 -8 12 -13 12 -33 0 -83 86 -83
146 -2 126 138 221 248 169z m-146 -7511 c95 -47 135 -156 91 -246 -62 -128
-235 -141 -316 -23 -101 147 67 348 225 269z" />
    <path d="M754 10020 c-80 -40 -86 -167 -10 -234 94 -82 241 -15 240 110 -2
117 -117 179 -230 124z m96 -80 c0 -11 6 -20 13 -20 6 -1 26 -7 42 -15 30 -15
30 -15 -14 -9 -41 6 -44 5 -38 -15 3 -11 3 -21 0 -21 -5 0 -74 31 -81 36 -9 6
22 46 41 54 33 13 37 12 37 -10z" />
    <path d="M609 2485 c-91 -59 -73 -226 27 -251 114 -29 194 36 194 157 0 106
-123 158 -221 94z m81 -75 c0 -11 6 -20 13 -20 6 -1 26 -7 42 -15 30 -15 30
-15 -14 -9 -41 6 -44 5 -38 -15 3 -11 3 -21 0 -21 -5 0 -74 31 -81 36 -9 6 22
46 41 54 33 13 37 12 37 -10z" />
    <path d="M2347 11973 c-5 -29 -81 -237 -95 -263 -5 -8 -21 -37 -37 -65 -15
-27 -45 -80 -66 -117 -21 -36 -39 -69 -39 -73 0 -3 -18 -29 -40 -58 -22 -29
-69 -90 -105 -137 -35 -47 -68 -89 -72 -95 -73 -86 -273 -353 -330 -438 -390
-582 -383 -1171 22 -1985 113 -227 395 -702 417 -702 10 0 58 -46 58 -56 0 -5
39 -64 88 -131 362 -507 570 -976 639 -1443 29 -203 14 -553 -32 -720 -8 -30
-15 -67 -15 -82 0 -15 -5 -30 -10 -33 -6 -3 -10 -15 -10 -26 0 -27 -111 -284
-172 -398 -126 -233 -315 -485 -582 -772 -333 -359 -439 -530 -619 -999 -258
-673 -292 -1330 -91 -1802 13 -32 35 -84 49 -116 52 -123 168 -313 279 -457
54 -70 196 -222 502 -534 266 -273 334 -363 334 -441 0 -30 0 -30 790 -30 790
0 790 0 790 6000 0 6000 0 6000 -824 6000 -824 0 -824 0 -829 -27z m907 -5593
c181 -68 134 -346 -60 -349 -140 -2 -229 154 -155 272 47 73 139 106 215 77z" />
    <path d="M3120 6342 c-118 -59 -104 -235 21 -263 114 -26 189 38 189 161 0 93
-116 150 -210 102z m131 -93 c26 -26 22 -36 -28 -66 -41 -24 -41 -24 -36 -2 6
20 4 21 -38 14 -44 -7 -44 -7 -17 14 14 11 34 21 43 21 12 0 16 6 12 20 -7 28
36 27 64 -1z" />
  </g>
  <g transform="translate(0.000000,1200.000000) scale(0.100000,-0.100000)" fill="#d11f3c" stroke="none">
    <path d="M2274 11965 c-7 -19 -14 -41 -14 -49 0 -8 -26 -64 -57 -123 -31 -59
-68 -128 -80 -153 -41 -80 -205 -305 -314 -430 -31 -36 -71 -87 -90 -115 -18
-27 -47 -64 -64 -81 -60 -62 -181 -239 -191 -281 -4 -13 -10 -23 -15 -23 -5 0
-9 -6 -9 -13 0 -8 -22 -51 -50 -97 -27 -46 -50 -88 -50 -93 0 -6 -11 -33 -25
-61 -25 -52 -54 -151 -79 -266 -119 -545 71 -1184 593 -1995 53 -82 102 -161
109 -176 7 -14 35 -50 63 -79 27 -29 92 -116 143 -194 548 -827 708 -1545 489
-2206 -87 -265 -338 -678 -547 -904 -17 -18 -65 -73 -106 -122 -80 -94 -211
-243 -319 -362 -86 -96 -127 -159 -210 -322 -543 -1068 -549 -1980 -16 -2719
138 -192 219 -284 502 -573 264 -269 353 -373 405 -470 44 -82 112 -83 89 0
-27 94 -83 164 -335 423 -306 312 -448 464 -502 534 -111 144 -227 334 -279
457 -14 32 -36 84 -49 116 -199 469 -166 1111 91 1782 180 469 286 640 619
999 267 287 456 539 582 772 61 114 172 371 172 398 0 11 4 23 10 26 5 3 10
18 10 33 0 15 7 52 15 82 103 376 45 914 -149 1385 -117 281 -436 807 -585
964 -74 78 -306 463 -436 723 -404 811 -410 1385 -22 1965 57 85 257 352 330
438 4 6 37 48 72 95 36 47 83 108 105 137 22 29 40 55 40 58 0 4 18 37 39 73
21 37 51 90 66 117 16 28 32 57 37 65 17 31 90 236 95 268 8 51 -61 49 -83 -3z" />
    <path d="M825 10073 c-78 -18 -95 -25 -95 -38 0 -18 16 -19 58 -4 40 14 128
-10 159 -43 61 -65 44 -171 -33 -207 -131 -62 -256 41 -209 171 26 72 -6 84
-38 15 -94 -198 170 -359 315 -193 100 113 -16 333 -157 299z" />
    <path d="M803 9960 c-21 -9 -43 -38 -43 -59 0 -11 71 -51 90 -51 5 0 10 9 10
19 0 17 5 19 36 14 52 -9 45 28 -9 41 -26 7 -37 15 -37 28 0 19 -13 22 -47 8z" />
    <path d="M3134 6387 c-146 -43 -174 -246 -46 -328 116 -75 267 -13 287 117 21
144 -102 251 -241 211z m151 -73 c97 -100 10 -256 -132 -237 -50 7 -65 18 -96
76 -25 48 -25 62 -2 119 4 9 27 33 52 52 70 54 119 51 178 -10z" />
    <path d="M3190 6260 c0 -11 6 -20 14 -20 8 0 17 -3 19 -7 3 -5 -16 -8 -41 -8
-37 0 -47 -4 -50 -18 -3 -16 1 -18 27 -12 24 5 31 3 31 -9 0 -21 11 -20 49 2
38 21 39 44 5 71 -34 26 -54 27 -54 1z" />
    <path d="M636 2549 c-103 -24 -161 -134 -124 -236 7 -18 16 -33 20 -33 4 0 8
-6 8 -14 0 -16 70 -66 93 -66 22 0 22 23 -1 35 -80 44 -82 47 -82 108 0 109
61 177 158 177 51 0 58 24 11 34 -36 7 -31 7 -83 -5z" />
    <path d="M770 2511 c0 -17 46 -61 64 -61 22 0 20 15 -8 44 -23 26 -56 35 -56
17z" />
    <path d="M643 2430 c-21 -9 -43 -38 -43 -59 0 -11 71 -51 90 -51 5 0 10 9 10
19 0 17 5 19 36 14 52 -9 45 28 -9 41 -26 7 -37 15 -37 28 0 19 -13 22 -47 8z" />
    <path d="M840 2375 c0 -8 7 -15 15 -15 8 0 15 7 15 15 0 8 -7 15 -15 15 -8 0
-15 -7 -15 -15z" />
    <path d="M830 2325 c0 -9 -7 -18 -15 -21 -8 -4 -15 -12 -15 -20 0 -8 -9 -19
-20 -26 -24 -15 -26 -38 -5 -38 28 0 85 74 85 111 0 5 -7 9 -15 9 -8 0 -15 -7
-15 -15z" />
    <path d="M660 2205 c0 -8 7 -15 15 -15 8 0 15 7 15 15 0 8 -7 15 -15 15 -8 0
-15 -7 -15 -15z" />
  </g>
  <g transform="translate(0.000000,1200.000000) scale(0.100000,-0.100000)" fill="#fcf8f8" stroke="none">
    <path d="M855 10030 c3 -5 15 -10 26 -10 11 0 17 5 14 10 -3 6 -15 10 -26 10
-11 0 -17 -4 -14 -10z" />
    <path d="M738 10019 c-18 -10 -25 -29 -10 -29 4 0 18 9 32 20 27 21 10 28 -22
9z" />
    <path d="M840 9935 c0 -8 7 -15 15 -15 9 0 12 6 9 15 -4 8 -10 15 -15 15 -5 0
-9 -7 -9 -15z" />
    <path d="M970 9921 c0 -11 5 -23 10 -26 6 -4 10 5 10 19 0 14 -4 26 -10 26 -5
0 -10 -9 -10 -19z" />
    <path d="M680 9915 c0 -8 5 -15 10 -15 6 0 10 7 10 15 0 8 -4 15 -10 15 -5 0
-10 -7 -10 -15z" />
    <path d="M850 9871 c0 -11 5 -23 10 -26 6 -3 10 3 10 14 0 11 -4 23 -10 26 -5
3 -10 -3 -10 -14z" />
    <path d="M1010 9875 c0 -8 5 -15 10 -15 6 0 10 7 10 15 0 8 -4 15 -10 15 -5 0
-10 -7 -10 -15z" />
    <path d="M640 9865 c0 -8 5 -15 10 -15 6 0 10 7 10 15 0 8 -4 15 -10 15 -5 0
-10 -7 -10 -15z" />
    <path d="M700 9849 c0 -19 37 -65 46 -56 3 3 1 12 -5 19 -7 7 -18 22 -26 33
-12 16 -14 17 -15 4z" />
    <path d="M652 9823 c24 -49 32 -63 40 -63 13 0 9 17 -7 34 -8 8 -15 19 -15 25
0 6 -5 11 -11 11 -6 0 -9 -3 -7 -7z" />
    <path d="M950 9815 c-10 -12 -10 -15 4 -15 9 0 16 7 16 15 0 8 -2 15 -4 15 -2
0 -9 -7 -16 -15z" />
    <path d="M3164 6398 c-3 -4 9 -8 27 -8 18 0 29 3 25 7 -10 10 -46 11 -52 1z" />
    <path d="M3106 6339 c-14 -11 -26 -25 -26 -30 0 -6 12 -1 26 10 15 12 33 21
40 21 7 0 16 5 19 10 11 18 -32 10 -59 -11z" />
    <path d="M3235 6347 c11 -7 37 -29 58 -50 24 -24 37 -32 37 -22 0 8 -4 15 -10
15 -5 0 -10 7 -10 15 0 8 -7 15 -15 15 -8 0 -15 6 -15 14 0 7 -10 16 -22 20
-35 9 -45 6 -23 -7z" />
    <path d="M3242 6259 c2 -7 10 -15 17 -17 8 -3 12 1 9 9 -2 7 -10 15 -17 17 -8
3 -12 -1 -9 -9z" />
    <path d="M3030 6195 c0 -8 5 -15 10 -15 6 0 10 7 10 15 0 8 -4 15 -10 15 -5 0
-10 -7 -10 -15z" />
    <path d="M3100 6196 c0 -17 14 -29 23 -20 8 8 -3 34 -14 34 -5 0 -9 -6 -9 -14z" />
    <path d="M3370 6190 c0 -19 3 -21 12 -12 9 9 9 15 0 24 -9 9 -12 7 -12 -12z" />
    <path d="M3175 6177 c-4 -10 -5 -21 -1 -24 10 -10 18 4 13 24 -4 17 -4 17 -12
0z" />
    <path d="M3310 6175 c0 -8 5 -15 10 -15 6 0 10 7 10 15 0 8 -4 15 -10 15 -5 0
-10 -7 -10 -15z" />
    <path d="M3070 6120 c0 -11 7 -20 15 -20 13 0 14 4 5 20 -6 11 -13 20 -15 20
-3 0 -5 -9 -5 -20z" />
    <path d="M3211 6089 c-13 -5 -22 -12 -19 -14 8 -8 68 7 68 16 0 11 -18 10 -49
-2z" />
    <path d="M3230 6030 c0 -5 6 -10 14 -10 8 0 18 5 21 10 3 6 -3 10 -14 10 -12
0 -21 -4 -21 -10z" />
    <path d="M1965 4490 c-10 -11 -16 -22 -13 -25 3 -3 13 6 22 20 20 30 16 32 -9
5z" />
    <path d="M1630 3970 c-6 -12 -9 -24 -7 -27 3 -2 11 5 17 17 6 12 9 24 7 27 -3
2 -11 -5 -17 -17z" />
    <path d="M720 2560 c0 -5 9 -10 21 -10 11 0 17 5 14 10 -3 6 -13 10 -21 10 -8
0 -14 -4 -14 -10z" />
    <path d="M524 2495 c-9 -14 -14 -28 -11 -32 7 -6 46 36 47 50 0 16 -20 6 -36
-18z" />
    <path d="M618 2496 c-10 -7 -18 -16 -18 -20 0 -12 18 -6 41 14 28 22 6 28 -23
6z" />
    <path d="M830 2488 c0 -10 5 -18 10 -18 6 0 10 -7 10 -15 0 -8 5 -15 10 -15
15 0 12 12 -10 40 -16 20 -20 22 -20 8z" />
    <path d="M814 2434 c3 -9 6 -29 6 -45 0 -16 5 -29 10 -29 6 0 10 10 10 23 0
34 -11 67 -22 67 -6 0 -7 -7 -4 -16z" />
    <path d="M680 2405 c0 -8 7 -15 15 -15 9 0 12 6 9 15 -4 8 -10 15 -15 15 -5 0
-9 -7 -9 -15z" />
    <path d="M690 2341 c0 -11 5 -23 10 -26 6 -3 10 3 10 14 0 11 -4 23 -10 26 -5
3 -10 -3 -10 -14z" />
    <path d="M490 2335 c0 -20 30 -79 36 -72 7 7 -19 87 -28 87 -5 0 -8 -7 -8 -15z" />
    <path d="M860 2329 c0 -11 5 -17 10 -14 6 3 10 13 10 21 0 8 -4 14 -10 14 -5
0 -10 -9 -10 -21z" />
    <path d="M780 2275 c-10 -12 -10 -15 4 -15 9 0 16 7 16 15 0 8 -2 15 -4 15 -2
0 -9 -7 -16 -15z" />
    <path d="M540 2241 c0 -12 29 -35 36 -28 4 3 -1 13 -9 22 -17 17 -27 19 -27 6z" />
    <path d="M650 2230 c0 -5 11 -10 25 -10 14 0 25 5 25 10 0 6 -11 10 -25 10
-14 0 -25 -4 -25 -10z" />
    <path d="M1325 1260 c9 -16 18 -30 21 -30 2 0 -2 14 -11 30 -9 17 -18 30 -21
30 -2 0 2 -13 11 -30z" />
  </g>
  <g transform="translate(0.000000,1200.000000) scale(0.100000,-0.100000)" fill="#d2233f" stroke="none">
    <path d="M770 10061 c0 -5 7 -12 16 -15 21 -8 21 -8 21 9 0 8 -9 15 -19 15
-10 0 -18 -4 -18 -9z" />
    <path d="M713 10033 c-7 -2 -13 -11 -13 -19 0 -8 6 -14 13 -14 21 0 40 17 33
29 -8 12 -13 12 -33 4z" />
    <path d="M950 10023 c0 -3 8 -16 17 -27 13 -15 10 -14 -10 3 -35 32 -47 20
-13 -14 14 -14 26 -30 26 -35 0 -6 5 -10 11 -10 6 0 8 7 5 16 -3 8 -2 12 4 9
19 -12 10 31 -10 48 -22 18 -30 21 -30 10z" />
    <path d="M809 9924 c-13 -16 0 -34 26 -34 6 0 4 4 -4 9 -9 6 -10 11 -2 15 13
8 15 26 2 26 -5 0 -14 -7 -22 -16z" />
    <path d="M678 9923 c0 -5 -2 -12 -3 -18 -2 -5 -3 -16 -4 -23 0 -7 -5 -10 -11
-7 -5 3 -10 -1 -10 -9 0 -14 3 -14 20 -4 12 8 20 24 20 40 0 25 -8 39 -12 21z" />
    <path d="M980 9910 c0 -11 5 -20 10 -20 6 0 10 9 10 20 0 11 -4 20 -10 20 -5
0 -10 -9 -10 -20z" />
    <path d="M700 9822 c0 -5 7 -16 16 -23 14 -12 16 -11 13 5 -4 20 -29 35 -29
18z" />
    <path d="M947 9809 c-10 -11 -17 -25 -15 -30 4 -11 48 27 48 41 0 15 -13 10
-33 -11z" />
    <path d="M690 9774 c0 -10 28 -34 41 -34 7 0 4 9 -9 20 -21 20 -32 25 -32 14z" />
    <path d="M790 9709 c0 -5 11 -9 25 -9 14 0 25 4 25 9 0 5 -11 9 -25 9 -14 0
-25 -4 -25 -9z" />
    <path d="M1970 7975 c0 -18 19 -40 26 -32 4 4 0 15 -9 24 -9 10 -17 13 -17 8z" />
    <path d="M3204 6385 c-5 -11 -10 -13 -19 -5 -8 7 -12 5 -12 -5 0 -8 9 -15 21
-15 12 0 32 -3 45 -7 18 -5 22 -3 16 6 -5 10 -2 11 14 6 13 -4 21 -2 21 5 0 8
-12 10 -37 6 -21 -3 -32 -3 -25 0 17 8 15 24 -3 24 -9 0 -18 -7 -21 -15z" />
    <path d="M3110 6365 c14 -17 50 -20 50 -4 0 6 -9 8 -21 4 -15 -5 -19 -4 -15 4
4 6 0 11 -10 11 -13 0 -14 -3 -4 -15z" />
    <path d="M3040 6318 c0 -9 -4 -18 -9 -20 -22 -8 -23 -54 -1 -55 18 -2 21 3 18
30 -3 28 0 32 20 29 12 -2 22 2 22 8 0 7 -6 10 -14 7 -7 -3 -19 0 -25 6 -8 8
-11 7 -11 -5z" />
    <path d="M3213 6247 c-24 -10 -31 -27 -13 -27 7 0 7 -6 0 -19 -23 -44 -2 -55
39 -20 31 26 20 37 -16 15 -27 -17 -27 -17 -8 1 42 37 40 70 -2 50z" />
    <path d="M3013 6213 c0 -7 6 -13 14 -13 7 0 13 6 13 13 0 8 -6 14 -13 14 -8 0
-14 -6 -14 -14z" />
    <path d="M3117 6213 c-4 -3 -7 -13 -7 -20 0 -21 33 -11 36 10 2 17 -16 24 -29
10z" />
    <path d="M3320 6205 c0 -8 5 -15 10 -15 6 0 10 7 10 15 0 8 -4 15 -10 15 -5 0
-10 -7 -10 -15z" />
    <path d="M3014 6157 c7 -34 13 -43 22 -34 4 4 1 13 -6 22 -8 10 -9 15 -1 15 6
0 11 6 11 13 0 8 -7 14 -16 14 -12 0 -14 -7 -10 -30z" />
    <path d="M3065 6103 c2 -16 4 -31 4 -35 1 -11 23 -10 41 2 12 7 9 13 -13 34
-35 32 -36 32 -32 -1z" />
    <path d="M3155 6070 c3 -5 17 -10 31 -10 13 0 24 5 24 10 0 6 -14 10 -31 10
-17 0 -28 -4 -24 -10z" />
    <path d="M3160 6030 c0 -5 14 -10 30 -10 17 0 30 5 30 10 0 6 -13 10 -30 10
-16 0 -30 -4 -30 -10z" />
    <path d="M1527 3960 c-20 -33 -33 -60 -29 -60 10 1 75 110 69 116 -2 3 -20
-23 -40 -56z" />
    <path d="M640 2550 c0 -5 9 -10 20 -10 11 0 20 5 20 10 0 6 -9 10 -20 10 -11
0 -20 -4 -20 -10z" />
    <path d="M580 2524 c0 -14 3 -14 15 -4 8 7 15 14 15 16 0 2 -7 4 -15 4 -8 0
-15 -7 -15 -16z" />
    <path d="M730 2531 c-19 -13 -9 -21 26 -24 20 -1 29 3 29 13 0 18 -34 24 -55
11z" />
    <path d="M634 2514 c-18 -15 -18 -15 6 -10 14 3 33 6 43 6 9 0 17 5 17 10 0
16 -44 12 -66 -6z" />
    <path d="M790 2500 c-7 -4 -10 -12 -6 -18 9 -14 46 -11 46 4 0 16 -24 24 -40
14z" />
    <path d="M570 2475 c-17 -21 -5 -31 15 -12 8 9 15 18 15 21 0 11 -18 6 -30 -9z" />
    <path d="M500 2381 c0 -19 4 -30 10 -26 10 6 8 40 -3 51 -4 4 -7 -7 -7 -25z" />
    <path d="M539 2408 c-6 -24 -5 -59 2 -63 5 -4 9 10 9 29 0 28 -7 49 -11 34z" />
    <path d="M649 2394 c-13 -16 0 -34 26 -34 6 0 4 4 -4 9 -9 6 -10 11 -2 15 13
8 15 26 2 26 -5 0 -14 -7 -22 -16z" />
    <path d="M835 2348 c-4 -15 -11 -30 -16 -33 -16 -10 -10 -27 7 -21 14 5 15 4
5 -8 -7 -8 -19 -12 -27 -9 -8 3 -14 1 -14 -4 0 -5 -21 -20 -47 -33 -71 -35
-140 -13 -183 59 -9 14 -11 14 -20 1 -20 -30 24 -83 69 -83 16 0 28 -4 26 -8
-6 -9 20 -19 53 -19 39 0 93 22 88 37 -3 7 1 10 10 6 9 -3 14 0 12 8 -2 9 4
13 15 11 9 -2 17 3 17 9 0 7 6 20 14 28 21 25 30 88 12 88 -9 0 -18 -13 -21
-29z m-234 -114 c9 -11 2 -9 -18 6 -18 13 -33 25 -33 27 0 8 38 -17 51 -33z" />
  </g>
  <g transform="translate(0.000000,1200.000000) scale(0.100000,-0.100000)" fill="#fbf2f3" stroke="none">
    <path d="M775 10070 c-3 -5 3 -10 14 -10 12 0 21 5 21 10 0 6 -6 10 -14 10 -8
0 -18 -4 -21 -10z" />
    <path d="M691 9949 c-14 -32 -11 -48 6 -27 15 19 26 58 16 58 -4 0 -14 -14
-22 -31z" />
    <path d="M647 9933 c-11 -10 -8 -53 3 -53 6 0 10 14 10 30 0 31 -2 35 -13 23z" />
    <path d="M912 9900 c13 -20 28 -27 28 -12 0 10 -22 32 -32 32 -5 0 -3 -9 4
-20z" />
    <path d="M977 9883 c-11 -20 -17 -63 -8 -63 10 0 26 58 18 66 -3 3 -7 2 -10
-3z" />
    <path d="M648 9864 c-3 -5 -1 -20 4 -34 6 -14 12 -20 14 -14 6 15 -11 60 -18
48z" />
    <path d="M1006 9834 c-9 -36 1 -43 14 -10 12 33 12 36 1 36 -5 0 -12 -12 -15
-26z" />
    <path d="M1980 7952 c0 -5 7 -15 15 -22 8 -7 15 -8 15 -2 0 5 -7 15 -15 22 -8
7 -15 8 -15 2z" />
    <path d="M3055 6350 c-10 -11 -15 -23 -12 -26 4 -4 9 1 13 10 3 9 12 16 20 16
8 0 14 5 14 10 0 16 -15 12 -35 -10z" />
    <path d="M3190 6360 c0 -5 7 -10 15 -10 8 0 15 5 15 10 0 6 -7 10 -15 10 -8 0
-15 -4 -15 -10z" />
    <path d="M3270 6333 c0 -10 50 -58 50 -49 0 12 -32 56 -41 56 -5 0 -9 -3 -9
-7z" />
    <path d="M3360 6271 c0 -12 5 -21 10 -21 6 0 10 6 10 14 0 8 -4 18 -10 21 -5
3 -10 -3 -10 -14z" />
    <path d="M3005 6257 c-4 -10 -5 -21 -1 -24 10 -10 18 4 13 24 -4 17 -4 17 -12
0z" />
    <path d="M3030 6205 c0 -19 4 -35 8 -35 5 0 9 16 10 35 1 19 -3 35 -8 35 -6 0
-10 -16 -10 -35z" />
    <path d="M3370 6220 c0 -19 3 -21 12 -12 9 9 9 15 0 24 -9 9 -12 7 -12 -12z" />
    <path d="M3040 6091 c0 -12 29 -35 36 -28 4 3 -1 13 -9 22 -17 17 -27 19 -27
6z" />
    <path d="M3125 6030 c3 -5 13 -10 21 -10 8 0 14 5 14 10 0 6 -9 10 -21 10 -11
0 -17 -4 -14 -10z" />
    <path d="M1830 4225 c-13 -14 -21 -27 -18 -30 2 -3 15 6 28 20 13 14 21 27 18
30 -2 3 -15 -6 -28 -20z" />
    <path d="M790 2466 c0 -2 7 -9 15 -16 12 -10 15 -10 15 4 0 9 -7 16 -15 16 -8
0 -15 -2 -15 -4z" />
    <path d="M824 2390 c0 -22 3 -40 8 -40 4 0 8 18 8 40 0 22 -4 40 -8 40 -4 0
-8 -18 -8 -40z" />
    <path d="M752 2370 c13 -20 28 -27 28 -12 0 10 -22 32 -32 32 -5 0 -3 -9 4
-20z" />
    <path d="M550 2321 c0 -12 5 -21 10 -21 6 0 10 6 10 14 0 8 -4 18 -10 21 -5 3
-10 -3 -10 -14z" />
    <path d="M810 2319 c-13 -24 -4 -41 10 -19 10 16 13 40 5 40 -2 0 -9 -9 -15
-21z" />
    <path d="M715 2243 c-26 -6 -44 -23 -24 -23 26 0 59 12 59 21 0 9 -3 10 -35 2z" />
    <path d="M1730 845 c7 -8 17 -15 22 -15 6 0 5 7 -2 15 -7 8 -17 15 -22 15 -6
0 -5 -7 2 -15z" />
  </g>
  <g transform="translate(0.000000,1200.000000) scale(0.100000,-0.100000)" fill="#d22944" stroke="none">
    <path d="M810 10070 c0 -5 9 -10 19 -10 11 0 23 5 26 10 4 6 -5 10 -19 10 -14
0 -26 -4 -26 -10z" />
    <path d="M740 10050 c0 -5 -7 -10 -16 -10 -10 0 -14 -6 -11 -14 3 -8 -1 -13
-11 -12 -9 0 -18 -8 -20 -19 -4 -17 -3 -18 14 -5 13 11 16 11 10 2 -7 -11 -4
-12 13 -2 12 6 20 17 19 25 -2 8 6 21 17 29 18 14 18 15 3 16 -10 0 -18 -4
-18 -10z" />
    <path d="M771 10039 c-13 -5 -22 -11 -20 -14 8 -7 89 7 89 16 0 12 -38 10 -69
-2z" />
    <path d="M1000 9944 c0 -8 -4 -12 -10 -9 -5 3 -10 -1 -10 -9 0 -14 3 -14 20
-4 21 13 27 38 10 38 -5 0 -10 -7 -10 -16z" />
    <path d="M794 9875 c11 -8 25 -15 30 -15 6 0 2 7 -8 15 -11 8 -25 15 -30 15
-6 0 -2 -7 8 -15z" />
    <path d="M690 9852 c0 -5 7 -17 15 -28 15 -19 20 -8 9 20 -6 17 -24 22 -24 8z" />
    <path d="M835 9761 c-22 -3 -35 -9 -30 -13 14 -8 77 0 89 12 11 11 6 11 -59 1z" />
    <path d="M824 9708 c-3 -4 6 -8 20 -8 14 0 26 4 26 9 0 11 -39 10 -46 -1z" />
    <path d="M3160 6392 c0 -5 14 -9 30 -9 17 0 30 4 30 9 0 4 -13 8 -30 8 -16 0
-30 -4 -30 -8z" />
    <path d="M3027 6313 c-15 -15 -8 -36 8 -23 8 7 15 16 15 21 0 11 -14 12 -23 2z" />
    <path d="M3206 6272 c5 -4 21 -18 37 -31 23 -21 27 -22 27 -7 0 10 -9 20 -20
23 -11 3 -20 9 -20 14 0 5 -8 9 -17 9 -9 0 -13 -3 -7 -8z" />
    <path d="M3360 6246 c0 -8 5 -18 10 -21 6 -3 10 3 10 14 0 12 -4 21 -10 21 -5
0 -10 -6 -10 -14z" />
    <path d="M3180 6229 c0 -6 7 -9 15 -6 8 4 17 2 20 -4 4 -5 11 -7 16 -3 5 3 7
10 4 15 -9 13 -55 11 -55 -2z" />
    <path d="M3023 6213 c-18 -7 -16 -30 2 -30 8 0 15 9 15 19 0 10 -1 18 -2 17
-2 0 -9 -3 -15 -6z" />
    <path d="M3146 6208 c5 -7 2 -9 -8 -6 -9 4 -15 0 -15 -8 0 -15 7 -17 31 -8 20
8 20 20 0 28 -10 4 -13 2 -8 -6z" />
    <path d="M3367 6193 c-11 -10 -8 -43 3 -43 6 0 10 11 10 25 0 26 -2 29 -13 18z" />
    <path d="M3070 6111 c0 -10 45 -41 60 -41 5 0 10 5 10 10 0 6 -9 10 -20 10
-11 0 -20 4 -20 9 0 5 -7 11 -15 15 -8 3 -15 2 -15 -3z" />
    <path d="M2709 5504 c-5 -15 -8 -29 -5 -31 2 -2 8 10 14 26 13 38 5 41 -9 5z" />
    <path d="M664 2553 c7 -8 12 -9 54 -11 12 -1 22 -6 22 -11 0 -4 -11 -6 -24 -4
-13 3 -27 0 -30 -6 -5 -7 7 -11 33 -11 23 0 41 -4 41 -10 0 -5 8 -10 18 -10
15 1 15 2 -3 16 -11 8 -19 21 -17 28 1 8 -8 16 -20 20 -32 8 -83 7 -74 -1z" />
    <path d="M562 2460 c-15 -24 -16 -40 -2 -40 6 0 10 9 10 20 0 11 5 20 10 20 6
0 10 5 10 10 0 16 -14 11 -28 -10z" />
    <path d="M832 2408 c1 -24 -2 -57 -6 -74 -5 -23 -3 -31 7 -31 9 0 12 7 9 19
-3 12 0 18 9 16 16 -4 23 32 14 78 -9 50 -33 44 -33 -8z" />
    <path d="M634 2345 c11 -8 25 -15 30 -15 6 0 2 7 -8 15 -11 8 -25 15 -30 15
-6 0 -2 -7 8 -15z" />
    <path d="M504 2324 c4 -16 12 -30 17 -32 5 -2 9 -10 9 -18 0 -19 16 -18 24 2
9 24 7 44 -5 44 -6 0 -8 -9 -4 -22 6 -22 6 -22 -9 -4 -9 11 -16 25 -16 32 0 7
-5 16 -11 20 -9 5 -10 -1 -5 -22z" />
    <path d="M786 2274 c-8 -21 -8 -21 7 -27 7 -3 13 5 13 19 2 27 -11 32 -20 8z" />
    <path d="M570 2266 c0 -2 7 -9 15 -16 12 -10 15 -10 15 4 0 9 -7 16 -15 16 -8
0 -15 -2 -15 -4z" />
    <path d="M613 2226 c0 -8 6 -12 14 -9 17 7 17 23 0 23 -8 0 -14 -6 -14 -14z" />
    <path d="M710 2227 c-35 -17 -36 -37 -2 -37 34 0 49 10 49 33 0 20 -12 21 -47
4z" />
    <path d="M647 2213 c-11 -11 -8 -23 6 -23 8 0 14 7 14 15 0 16 -9 19 -20 8z" />
  </g>
  <g transform="translate(0.000000,1200.000000) scale(0.100000,-0.100000)" fill="#d32f4a" stroke="none">
    <path d="M733 10024 c0 -8 6 -14 14 -14 7 0 13 4 13 9 0 5 -6 11 -13 14 -8 3
-14 -1 -14 -9z" />
    <path d="M691 9947 c-15 -39 -14 -45 5 -19 8 12 13 28 11 35 -3 6 -10 -1 -16
-16z" />
    <path d="M766 9914 c-7 -19 0 -34 17 -34 8 0 8 3 0 11 -6 6 -9 18 -6 25 3 8 3
14 0 14 -3 0 -8 -7 -11 -16z" />
    <path d="M913 9895 c0 -9 4 -14 9 -13 5 2 10 8 10 13 0 5 -5 11 -10 13 -5 1
-9 -4 -9 -13z" />
    <path d="M980 9890 c0 -19 3 -21 12 -12 9 9 9 15 0 24 -9 9 -12 7 -12 -12z" />
    <path d="M655 9833 c7 -28 25 -56 32 -50 5 5 -26 77 -33 77 -3 0 -3 -12 1 -27z" />
    <path d="M720 9741 c0 -5 7 -12 16 -15 24 -9 28 -7 14 9 -14 17 -30 20 -30 6z" />
    <path d="M885 9723 c-26 -6 -44 -23 -24 -23 26 0 59 12 59 21 0 9 -3 10 -35 2z" />
    <path d="M3180 6269 c0 -15 26 -39 42 -39 8 1 7 6 -6 15 -10 7 -15 18 -11 24
3 6 -1 11 -9 11 -9 0 -16 -5 -16 -11z" />
    <path d="M3257 6220 c-3 -13 0 -20 9 -20 15 0 19 26 5 34 -5 3 -11 -3 -14 -14z" />
    <path d="M3080 6060 c0 -12 48 -32 64 -27 5 2 -5 11 -23 20 -40 20 -41 20 -41
7z" />
    <path d="M613 2553 c-23 -9 -14 -25 10 -18 31 10 45 25 22 24 -11 0 -26 -3
-32 -6z" />
    <path d="M716 2551 c15 -14 54 -23 54 -13 0 11 -24 22 -48 22 -10 0 -12 -3 -6
-9z" />
    <path d="M818 2478 c-7 -19 2 -38 18 -38 15 0 17 9 8 34 -7 19 -20 21 -26 4z" />
    <path d="M500 2419 c0 -11 5 -17 10 -14 6 3 10 13 10 21 0 8 -4 14 -10 14 -5
0 -10 -9 -10 -21z" />
    <path d="M830 2390 c0 -19 -3 -46 -6 -60 -5 -19 -4 -22 5 -14 7 6 14 24 15 40
2 16 9 28 15 27 6 -2 11 8 11 21 0 19 -5 24 -20 23 -16 -1 -20 -8 -20 -37z" />
    <path d="M606 2384 c-7 -19 0 -34 17 -34 8 0 8 3 0 11 -6 6 -9 18 -6 25 3 8 3
14 0 14 -3 0 -8 -7 -11 -16z" />
    <path d="M753 2365 c0 -9 4 -14 9 -13 5 2 10 8 10 13 0 5 -5 11 -10 13 -5 1
-9 -4 -9 -13z" />
    <path d="M540 2345 c0 -8 5 -15 10 -15 6 0 10 7 10 15 0 8 -4 15 -10 15 -5 0
-10 -7 -10 -15z" />
    <path d="M592 2249 c2 -7 10 -15 17 -17 8 -3 12 1 9 9 -2 7 -10 15 -17 17 -8
3 -12 -1 -9 -9z" />
    <path d="M773 2244 c4 -4 1 -14 -5 -22 -10 -12 -9 -14 6 -11 26 5 31 25 9 33
-9 4 -14 4 -10 0z" />
    <path d="M580 2221 c0 -10 24 -21 43 -21 7 0 3 7 -7 15 -22 17 -36 19 -36 6z" />
    <path d="M643 2216 c0 -8 8 -11 19 -8 10 2 18 8 18 13 0 5 -8 9 -18 9 -10 0
-19 -6 -19 -14z" />
  </g>
  <g transform="translate(0.000000,1200.000000) scale(0.100000,-0.100000)" fill="#faeaed" stroke="none">
    <path d="M705 10030 c-10 -11 -14 -20 -9 -20 12 1 44 25 44 34 0 12 -17 6 -35
-14z" />
    <path d="M1004 9957 c3 -10 6 -27 6 -38 0 -10 5 -19 11 -19 13 0 3 50 -13 65
-8 7 -9 4 -4 -8z" />
    <path d="M680 9910 c0 -27 12 -60 21 -60 5 0 6 12 3 28 -8 31 -24 54 -24 32z" />
    <path d="M898 9723 c-10 -2 -18 -9 -18 -14 0 -13 13 -11 36 6 19 14 14 17 -18
8z" />
    <path d="M3170 6360 c0 -5 7 -10 15 -10 8 0 15 5 15 10 0 6 -7 10 -15 10 -8 0
-15 -4 -15 -10z" />
    <path d="M3021 6302 c-13 -25 -14 -32 -2 -32 9 0 23 41 16 48 -2 2 -8 -5 -14
-16z" />
    <path d="M3320 6245 c0 -8 5 -15 10 -15 6 0 10 7 10 15 0 8 -4 15 -10 15 -5 0
-10 -7 -10 -15z" />
    <path d="M3120 6215 c-7 -8 -8 -15 -2 -15 5 0 15 7 22 15 7 8 8 15 2 15 -5 0
-15 -7 -22 -15z" />
    <path d="M3250 6200 c0 -5 -7 -10 -15 -10 -8 0 -15 -4 -15 -10 0 -15 12 -12
40 10 20 16 22 20 8 20 -10 0 -18 -4 -18 -10z" />
    <path d="M3030 6182 c0 -7 9 -22 20 -34 26 -28 26 -11 0 22 -11 14 -20 19 -20
12z" />
    <path d="M3140 6080 c0 -5 9 -10 21 -10 11 0 17 5 14 10 -3 6 -13 10 -21 10
-8 0 -14 -4 -14 -10z" />
    <path d="M574 2535 c-10 -8 -14 -15 -7 -15 19 0 43 11 43 21 0 13 -14 11 -36
-6z" />
    <path d="M760 2541 c0 -10 24 -21 43 -21 7 0 3 7 -7 15 -22 17 -36 19 -36 6z" />
    <path d="M680 2510 c0 -5 7 -10 15 -10 8 0 15 5 15 10 0 6 -7 10 -15 10 -8 0
-15 -4 -15 -10z" />
    <path d="M720 2510 c0 -5 7 -10 15 -10 8 0 15 5 15 10 0 6 -7 10 -15 10 -8 0
-15 -4 -15 -10z" />
    <path d="M601 2491 c-7 -5 -12 -13 -10 -19 3 -7 14 -3 29 8 25 20 10 29 -19
11z" />
    <path d="M860 2364 c0 -21 4 -33 10 -29 6 3 10 19 10 36 0 16 -4 29 -10 29 -5
0 -10 -16 -10 -36z" />
    <path d="M510 2291 c0 -19 39 -57 40 -38 0 9 -4 17 -10 17 -5 0 -10 7 -10 15
0 8 -4 15 -10 15 -5 0 -10 -4 -10 -9z" />
    <path d="M781 2274 c-15 -15 -18 -24 -9 -24 12 0 43 38 36 45 -2 2 -14 -7 -27
-21z" />
    <path d="M790 2230 c0 -5 -7 -10 -15 -10 -8 0 -15 -4 -15 -10 0 -15 12 -12 40
10 20 16 22 20 8 20 -10 0 -18 -4 -18 -10z" />
    <path d="M574 2215 c22 -17 36 -19 36 -6 0 10 -24 21 -43 21 -7 0 -3 -7 7 -15z" />
    <path d="M1810 763 c0 -12 38 -48 44 -42 3 2 -6 15 -20 28 -13 13 -24 19 -24
14z" />
  </g>
  <g transform="translate(0.000000,1200.000000) scale(0.100000,-0.100000)" fill="#f5f5f5" stroke="none">
    <path d="M2040 8010 c0 -5 4 -10 9 -10 5 0 18 -3 28 -6 16 -6 16 -5 -2 9 -23
19 -35 21 -35 7z" />
  </g>
  <g transform="translate(0.000000,1200.000000) scale(0.100000,-0.100000)" fill="#dddcdc" stroke="none">
    <path d="M2813 6140 c0 -30 2 -43 4 -27 2 15 2 39 0 55 -2 15 -4 2 -4 -28z" />
    <path d="M1058 3993 c12 -2 32 -2 45 0 12 2 2 4 -23 4 -25 0 -35 -2 -22 -4z" />
    <path d="M1132 2250 c0 -19 2 -27 5 -17 2 9 2 25 0 35 -3 9 -5 1 -5 -18z" />
  </g>
  <g transform="translate(0.000000,1200.000000) scale(0.100000,-0.100000)" fill="#f5d6db" stroke="none">
    <path d="M855 10070 c3 -5 13 -10 21 -10 8 0 14 5 14 10 0 6 -9 10 -21 10 -11
0 -17 -4 -14 -10z" />
    <path d="M800 10040 c0 -6 17 -10 37 -10 42 0 38 11 -7 16 -16 2 -30 -1 -30
-6z" />
    <path d="M730 10010 c-14 -10 -23 -21 -20 -23 3 -3 19 6 35 19 35 28 22 32
-15 4z" />
    <path d="M840 9891 c0 -17 18 -21 24 -6 3 9 0 15 -9 15 -8 0 -15 -4 -15 -9z" />
    <path d="M655 9830 c4 -14 12 -29 17 -35 7 -7 8 -2 3 15 -4 14 -12 30 -17 35
-7 7 -8 2 -3 -15z" />
    <path d="M700 9843 c0 -15 47 -70 53 -63 3 3 -8 21 -24 40 -16 19 -29 29 -29
23z" />
    <path d="M990 9800 c-6 -12 -9 -24 -7 -27 3 -2 11 5 17 17 6 12 9 24 7 27 -3
2 -11 -5 -17 -17z" />
    <path d="M2010 8043 c0 -13 29 -38 35 -31 3 3 -4 13 -15 23 -11 10 -20 13 -20
8z" />
    <path d="M3225 6392 c6 -5 21 -13 35 -17 17 -5 22 -4 15 3 -5 5 -21 13 -35 17
-17 5 -22 4 -15 -3z" />
    <path d="M3210 6360 c0 -5 7 -10 15 -10 8 0 15 5 15 10 0 6 -7 10 -15 10 -8 0
-15 -4 -15 -10z" />
    <path d="M3330 6329 c0 -9 7 -22 15 -29 19 -16 19 0 0 26 -12 16 -14 16 -15 3z" />
    <path d="M3301 6300 c13 -16 24 -28 27 -26 6 6 -29 56 -39 56 -5 0 0 -13 12
-30z" />
    <path d="M3174 6255 c0 -14 7 -25 14 -25 13 0 15 10 6 34 -9 25 -22 19 -20 -9z" />
    <path d="M3000 6195 c0 -8 5 -15 10 -15 6 0 10 7 10 15 0 8 -4 15 -10 15 -5 0
-10 -7 -10 -15z" />
    <path d="M3310 6075 c-20 -24 -6 -28 15 -5 10 11 13 20 8 20 -6 0 -16 -7 -23
-15z" />
    <path d="M3238 6043 c-10 -2 -18 -9 -18 -14 0 -11 39 -2 55 12 9 9 -6 10 -37
2z" />
    <path d="M650 2560 c0 -5 16 -10 35 -10 19 0 35 5 35 10 0 6 -16 10 -35 10
-19 0 -35 -4 -35 -10z" />
    <path d="M535 2500 c-17 -18 -17 -20 -1 -20 9 0 19 7 23 15 9 25 -2 27 -22 5z" />
    <path d="M660 2510 c0 -5 7 -10 15 -10 8 0 15 5 15 10 0 6 -7 10 -15 10 -8 0
-15 -4 -15 -10z" />
    <path d="M570 2454 c0 -14 3 -14 15 -4 8 7 15 14 15 16 0 2 -7 4 -15 4 -8 0
-15 -7 -15 -16z" />
    <path d="M680 2361 c0 -17 18 -21 24 -6 3 9 0 15 -9 15 -8 0 -15 -4 -15 -9z" />
    <path d="M811 2312 c-7 -13 -11 -26 -8 -28 8 -8 29 25 25 38 -3 8 -9 4 -17
-10z" />
    <path d="M550 2310 c0 -22 16 -43 28 -39 7 3 3 14 -8 29 -13 17 -20 20 -20 10z" />
    <path d="M737 2244 c-16 -9 -26 -18 -23 -21 7 -8 66 17 66 28 0 12 -10 11 -43
-7z" />
    <path d="M610 2200 c0 -5 7 -10 15 -10 8 0 15 5 15 10 0 6 -7 10 -15 10 -8 0
-15 -4 -15 -10z" />
    <path d="M650 2190 c0 -5 16 -10 35 -10 19 0 35 5 35 10 0 6 -16 10 -35 10
-19 0 -35 -4 -35 -10z" />
    <path d="M1760 823 c0 -13 29 -38 35 -31 3 3 -4 13 -15 23 -11 10 -20 13 -20
8z" />
  </g>
  <g transform="translate(0.000000,1200.000000) scale(0.100000,-0.100000)" fill="#e5e4e4" stroke="none">
    <path d="M1925 640 c33 -33 62 -60 64 -60 3 0 -21 27 -54 60 -33 33 -62 60
-64 60 -3 0 21 -27 54 -60z" />
  </g>
  <g transform="translate(0.000000,1200.000000) scale(0.100000,-0.100000)" fill="#f8e1e4" stroke="none">
    <path d="M961 10016 c13 -14 26 -23 28 -20 6 6 -30 44 -42 44 -5 0 1 -11 14
-24z" />
    <path d="M878 9773 c-10 -2 -18 -9 -18 -15 0 -5 7 -7 16 -4 9 3 20 6 25 6 5 0
9 5 9 10 0 10 -3 11 -32 3z" />
    <path d="M3290 6360 c14 -11 30 -20 35 -20 6 0 -1 9 -15 20 -14 11 -29 20 -35
20 -5 0 1 -9 15 -20z" />
    <path d="M3216 6179 c-25 -25 -8 -24 24 1 16 13 20 19 10 19 -8 0 -24 -9 -34
-20z" />
    <path d="M555 2519 c-4 -6 -5 -13 -2 -16 7 -7 27 6 27 18 0 12 -17 12 -25 -2z" />
    <path d="M790 2521 c0 -13 29 -35 37 -28 7 8 -15 37 -28 37 -5 0 -9 -4 -9 -9z" />
    <path d="M674 2513 c11 -12 56 -14 56 -3 0 5 -14 10 -32 10 -17 0 -28 -3 -24
-7z" />
    <path d="M772 2489 c2 -7 10 -15 17 -17 8 -3 12 1 9 9 -2 7 -10 15 -17 17 -8
3 -12 -1 -9 -9z" />
    <path d="M510 2459 c-13 -24 -4 -41 10 -19 10 16 13 40 5 40 -2 0 -9 -9 -15
-21z" />
    <path d="M820 2345 c0 -8 5 -15 10 -15 6 0 10 7 10 15 0 8 -4 15 -10 15 -5 0
-10 -7 -10 -15z" />
    <path d="M817 2263 c-15 -15 -8 -36 8 -23 8 7 15 16 15 21 0 11 -14 12 -23 2z" />
    <path d="M1855 710 c10 -11 20 -18 23 -15 7 6 -18 35 -31 35 -5 0 -2 -9 8 -20z" />
  </g>
  <g transform="translate(0.000000,1200.000000) scale(0.100000,-0.100000)" fill="#d8445c" stroke="none">
    <path d="M836 9955 c4 -8 10 -12 15 -9 14 8 10 24 -6 24 -9 0 -12 -6 -9 -15z" />
    <path d="M1010 9900 c0 -19 3 -21 12 -12 9 9 9 15 0 24 -9 9 -12 7 -12 -12z" />
    <path d="M3131 6389 c-13 -5 -22 -12 -19 -14 6 -6 58 12 58 20 0 7 -11 5 -39
-6z" />
    <path d="M3230 6355 c33 -19 50 -18 26 0 -11 8 -27 15 -35 15 -10 -1 -7 -6 9
-15z" />
    <path d="M3060 6344 c0 -14 3 -14 15 -4 8 7 15 14 15 16 0 2 -7 4 -15 4 -8 0
-15 -7 -15 -16z" />
    <path d="M3320 6263 c1 -22 20 -37 20 -15 0 12 -4 22 -10 22 -5 0 -10 -3 -10
-7z" />
    <path d="M3180 6191 c0 -10 6 -21 13 -24 15 -6 81 32 72 41 -3 3 -19 -5 -37
-18 -31 -23 -31 -23 -25 -1 3 14 1 21 -9 21 -8 0 -14 -9 -14 -19z" />
    <path d="M580 2530 c-14 -10 -23 -21 -20 -23 3 -3 19 6 35 19 35 28 22 32 -15
4z" />
    <path d="M805 2500 c10 -11 20 -18 23 -15 7 6 -18 35 -31 35 -5 0 -2 -9 8 -20z" />
    <path d="M837 2453 c-4 -3 -7 -11 -7 -16 0 -6 3 -7 7 -4 3 4 12 -1 20 -11 14
-16 14 -16 9 1 -3 10 -6 23 -6 28 0 11 -14 12 -23 2z" />
    <path d="M676 2425 c4 -8 10 -12 15 -9 14 8 10 24 -6 24 -9 0 -12 -6 -9 -15z" />
    <path d="M540 2395 c0 -8 5 -15 10 -15 6 0 10 7 10 15 0 8 -4 15 -10 15 -5 0
-10 -7 -10 -15z" />
    <path d="M490 2375 c0 -8 5 -15 10 -15 6 0 10 7 10 15 0 8 -4 15 -10 15 -5 0
-10 -7 -10 -15z" />
    <path d="M540 2325 c0 -8 5 -15 10 -15 6 0 10 7 10 15 0 8 -4 15 -10 15 -5 0
-10 -7 -10 -15z" />
    <path d="M836 2294 c-4 -10 -1 -14 6 -12 15 5 23 28 10 28 -5 0 -13 -7 -16
-16z" />
    <path d="M800 2245 c-13 -14 -19 -25 -13 -25 12 0 48 38 41 45 -2 3 -15 -6
-28 -20z" />
    <path d="M560 2241 c0 -10 50 -45 56 -39 2 3 -10 14 -26 27 -17 12 -30 17 -30
12z" />
  </g>
  <g transform="translate(0.000000,1200.000000) scale(0.100000,-0.100000)" fill="#f3cbd2" stroke="none">
    <path d="M935 9990 c16 -16 31 -28 33 -25 7 7 -39 55 -52 55 -5 0 3 -13 19
-30z" />
    <path d="M680 9783 c0 -14 72 -75 79 -67 3 2 -5 11 -18 20 -12 9 -31 25 -41
37 -11 11 -20 16 -20 10z" />
    <path d="M3054 6284 c-4 -10 -9 -22 -11 -26 -2 -5 0 -8 5 -8 10 0 24 41 17 48
-3 3 -8 -4 -11 -14z" />
    <path d="M3224 6265 c11 -8 25 -15 30 -15 6 0 2 7 -8 15 -11 8 -25 15 -30 15
-6 0 -2 -7 8 -15z" />
    <path d="M3361 6154 c-6 -15 -9 -29 -7 -32 3 -2 10 8 16 23 6 15 9 29 7 31 -2
2 -9 -8 -16 -22z" />
    <path d="M634 2510 c-20 -8 -42 -30 -31 -30 10 0 77 31 77 35 0 7 -22 5 -46
-5z" />
    <path d="M830 2483 c1 -12 39 -79 40 -70 0 12 -28 77 -34 77 -4 0 -6 -3 -6 -7z" />
    <path d="M497 2404 c-4 -4 -7 -14 -7 -23 0 -11 3 -12 11 -4 6 6 10 16 7 23 -2
6 -7 8 -11 4z" />
    <path d="M540 2370 c0 -11 5 -20 10 -20 6 0 10 9 10 20 0 11 -4 20 -10 20 -5
0 -10 -9 -10 -20z" />
    <path d="M845 2300 c3 -5 1 -10 -4 -10 -6 0 -11 -8 -11 -17 1 -16 2 -16 15 1
18 23 19 36 4 36 -5 0 -7 -4 -4 -10z" />
    <path d="M630 2230 c0 -5 7 -10 15 -10 8 0 15 5 15 10 0 6 -7 10 -15 10 -8 0
-15 -4 -15 -10z" />
    <path d="M740 2205 c-10 -12 -10 -15 3 -15 8 0 20 7 27 15 10 12 10 15 -3 15
-8 0 -20 -7 -27 -15z" />
  </g>
  <g transform="translate(0.000000,1200.000000) scale(0.100000,-0.100000)" fill="#f9e6e9" stroke="none">
    <path d="M3057 6353 c-10 -9 -9 -23 2 -23 5 0 11 7 15 15 5 15 -5 20 -17 8z" />
    <path d="M3090 6050 c0 -12 28 -21 35 -11 2 5 -4 11 -15 14 -11 3 -20 2 -20
-3z" />
    <path d="M674 2558 c-3 -4 9 -8 27 -8 18 0 29 3 25 7 -10 10 -46 11 -52 1z" />
    <path d="M694 2511 c7 -10 31 -9 42 2 4 4 -5 7 -20 7 -15 0 -25 -4 -22 -9z" />
    <path d="M810 2452 c0 -5 7 -17 15 -28 15 -19 20 -8 9 20 -6 17 -24 22 -24 8z" />
    <path d="M550 2416 c0 -8 -3 -22 -7 -32 -4 -11 -3 -15 4 -11 15 9 23 46 12 53
-5 3 -9 -1 -9 -10z" />
    <path d="M590 2256 c27 -27 89 -48 75 -27 -4 7 -10 10 -13 7 -3 -3 -20 5 -38
19 -42 32 -56 32 -24 1z" />
  </g>
  <g transform="translate(0.000000,1200.000000) scale(0.100000,-0.100000)" fill="#e06b7e" stroke="none">
    <path d="M715 10000 c-10 -11 -15 -20 -11 -20 11 0 39 30 34 36 -3 2 -13 -5
-23 -16z" />
    <path d="M937 10000 c12 -14 29 -41 38 -60 15 -34 16 -34 10 -5 -3 17 -20 44
-38 60 -20 19 -24 21 -10 5z" />
    <path d="M3230 6362 c0 -5 11 -14 25 -20 14 -6 25 -10 25 -8 0 2 -11 11 -25
20 -14 9 -25 13 -25 8z" />
    <path d="M650 2511 c0 -4 11 -6 25 -3 14 2 25 6 25 8 0 2 -11 4 -25 4 -14 0
-25 -4 -25 -9z" />
  </g>
  <g transform="translate(0.000000,1200.000000) scale(0.100000,-0.100000)" fill="#d63650" stroke="none">
    <path d="M3332 6324 c2 -5 12 -26 22 -48 9 -21 20 -36 22 -33 7 7 -25 75 -39
84 -5 3 -8 2 -5 -3z" />
    <path d="M3183 6243 c-23 -9 -13 -20 17 -19 33 1 39 10 14 20 -9 3 -16 6 -17
5 -1 0 -8 -3 -14 -6z" />
    <path d="M3234 6085 c-10 -8 -14 -14 -9 -15 15 0 40 18 34 24 -3 3 -14 -1 -25
-9z" />
    <path d="M549 2348 c-6 -21 -5 -39 2 -44 5 -3 9 6 9 20 0 21 -7 36 -11 24z" />
    <path d="M854 2334 c-4 -10 -9 -22 -11 -26 -2 -5 0 -8 6 -8 11 0 26 39 17 47
-3 3 -9 -3 -12 -13z" />
    <path d="M665 2220 c3 -5 15 -10 26 -10 10 0 19 5 19 10 0 6 -12 10 -26 10
-14 0 -23 -4 -19 -10z" />
    <path d="M625 2200 c3 -5 13 -10 21 -10 8 0 12 5 9 10 -3 6 -13 10 -21 10 -8
0 -12 -4 -9 -10z" />
  </g>
  <g transform="translate(0.000000,1200.000000) scale(0.100000,-0.100000)" fill="#dc546a" stroke="none">
    <path d="M740 9786 c0 -3 14 -12 30 -21 17 -9 30 -11 30 -6 0 5 -8 11 -17 15
-10 3 -24 9 -30 12 -7 3 -13 3 -13 0z" />
    <path d="M3210 6277 c0 -2 14 -13 30 -25 17 -13 30 -18 30 -13 0 6 -13 17 -30
26 -16 9 -30 14 -30 12z" />
    <path d="M800 2473 c0 -15 22 -30 42 -30 10 0 14 6 10 16 -4 11 -7 11 -10 2
-3 -9 -9 -8 -23 5 -10 9 -19 12 -19 7z" />
  </g>
  <g transform="translate(0.000000,1200.000000) scale(0.100000,-0.100000)" fill="#c7c4c5" stroke="none" />
  <g transform="translate(0.000000,1200.000000) scale(0.100000,-0.100000)" fill="#e78b9a" stroke="none">
    <path d="M834 9929 c-3 -5 9 -9 25 -9 17 0 31 2 31 4 0 8 -51 13 -56 5z" />
    <path d="M3285 6120 c-10 -11 -16 -22 -13 -25 3 -3 13 6 22 20 20 30 16 32 -9
5z" />
    <path d="M555 2510 c-16 -16 -24 -30 -18 -30 7 0 21 14 33 30 12 17 20 30 18
30 -3 0 -17 -13 -33 -30z" />
    <path d="M823 2429 c6 -16 14 -29 18 -29 11 0 -3 49 -16 54 -10 3 -10 -2 -2
-25z" />
    <path d="M674 2399 c-3 -5 9 -9 25 -9 17 0 31 2 31 4 0 8 -51 13 -56 5z" />
    <path d="M551 2244 c13 -14 33 -30 44 -36 11 -6 3 6 -18 26 -43 41 -63 49 -26
10z" />
  </g>
  <g transform="translate(0.000000,1200.000000) scale(0.100000,-0.100000)" fill="#cecccc" stroke="none" />
  <g transform="translate(0.000000,1200.000000) scale(0.100000,-0.100000)" fill="#d53c55" stroke="none">
    <path d="M950 9755 c-13 -14 -19 -25 -13 -25 12 0 48 38 41 45 -2 3 -15 -6
-28 -20z" />
    <path d="M3004 6227 c-2 -7 -1 -24 5 -38 8 -21 9 -20 8 14 -1 39 -4 46 -13 24z" />
    <path d="M3178 6205 c-11 -11 4 -45 19 -45 11 0 13 4 6 13 -6 6 -12 18 -14 25
-3 7 -7 10 -11 7z" />
    <path d="M674 2221 c7 -10 31 -9 42 2 4 4 -5 7 -20 7 -15 0 -25 -4 -22 -9z" />
  </g>
  <g transform="translate(0.000000,1200.000000) scale(0.100000,-0.100000)" fill="#efeeee" stroke="none" />
  <g transform="translate(0.000000,1200.000000) scale(0.100000,-0.100000)" fill="#de5f74" stroke="none">
    <path d="M669 9805 c17 -33 31 -51 31 -40 0 6 -10 21 -21 35 -13 17 -17 18
-10 5z" />
  </g>
  <g transform="translate(0.000000,1200.000000) scale(0.100000,-0.100000)" fill="#e47f8f" stroke="none">
    <path d="M3092 6095 c9 -10 21 -16 28 -13 7 2 -1 10 -16 17 -27 12 -28 11 -12
-4z" />
  </g>
  <g transform="translate(0.000000,1200.000000) scale(0.100000,-0.100000)" fill="#f1c1c9" stroke="none" />
  <g transform="translate(0.000000,1200.000000) scale(0.100000,-0.100000)" fill="#b2b2b2" stroke="none" />
  <g transform="translate(0.000000,1200.000000) scale(0.100000,-0.100000)" fill="#edadb7" stroke="none">
    <path d="M3173 6023 c9 -2 25 -2 35 0 9 3 1 5 -18 5 -19 0 -27 -2 -17 -5z" />
  </g>
  <g transform="translate(0.000000,1200.000000) scale(0.100000,-0.100000)" fill="#d5d4d4" stroke="none" />
  <g transform="translate(0.000000,1200.000000) scale(0.100000,-0.100000)" fill="#e996a4" stroke="none" />
  <g transform="translate(0.000000,1200.000000) scale(0.100000,-0.100000)" fill="#f0bac3" stroke="none" />
  <g transform="translate(0.000000,1200.000000) scale(0.100000,-0.100000)" fill="#e99fab" stroke="none" />
  <g transform="translate(0.000000,1200.000000) scale(0.100000,-0.100000)" fill="#da4d64" stroke="none" />
  <g transform="translate(0.000000,1200.000000) scale(0.100000,-0.100000)" fill="#eca6b2" stroke="none" />
  <g transform="translate(0.000000,1200.000000) scale(0.100000,-0.100000)" fill="#e3798a" stroke="none" />
  <g transform="translate(0.000000,1200.000000) scale(0.100000,-0.100000)" fill="#919090" stroke="none">
    <path d="M2040 8015 c0 -18 19 -40 26 -32 4 4 0 15 -9 24 -9 10 -17 13 -17 8z" />
  </g>
  <g transform="translate(0.000000,1200.000000) scale(0.100000,-0.100000)" fill="#c7253f" stroke="none">
    <path d="M2058 7994 c-4 -5 0 -18 8 -29 15 -20 17 -12 5 19 -4 11 -10 15 -13
10z" />
  </g>
  <g transform="translate(0.000000,1200.000000) scale(0.100000,-0.100000)" fill="#9d9d9d" stroke="none" />
  <g transform="translate(0.000000,1200.000000) scale(0.100000,-0.100000)" fill="#eaeaea" stroke="none" />
  <g transform="translate(0.000000,1200.000000) scale(0.100000,-0.100000)" fill="#827879" stroke="none" />
  <g transform="translate(0.000000,1200.000000) scale(0.100000,-0.100000)" fill="#de7385" stroke="none" />
  <g transform="translate(0.000000,1200.000000) scale(0.100000,-0.100000)" fill="#a2a2a2" stroke="none" />
  <g transform="translate(0.000000,1200.000000) scale(0.100000,-0.100000)" fill="#e9e1e3" stroke="none" />
  <g transform="translate(0.000000,1200.000000) scale(0.100000,-0.100000)" fill="#c65164" stroke="none" />
  <g transform="translate(0.000000,1200.000000) scale(0.100000,-0.100000)" fill="#e0d2d5" stroke="none" />
  <g transform="translate(0.000000,1200.000000) scale(0.100000,-0.100000)" fill="#b9a2a6" stroke="none" />
  <g transform="translate(0.000000,1200.000000) scale(0.100000,-0.100000)" fill="#d5b7bc" stroke="none" />
</svg>