<svg xmlns="http://www.w3.org/2000/svg" width="1024" height="1024" viewBox="0 0 1024 1024" version="1.1">
	<path d="M 312 248.614 C 310.625 248.848, 308.028 249.278, 306.229 249.569 C 301.678 250.306, 296.469 255.215, 294.315 260.797 C 292.809 264.699, 292.501 268.480, 292.506 283 C 292.512 301.928, 293.227 305.739, 297.789 311.161 C 303.034 317.394, 303.327 317.432, 349 317.814 C 394.059 318.190, 400.003 317.715, 405.867 313.271 C 407.763 311.835, 410.234 308.460, 411.521 305.547 C 415.528 296.487, 423.759 291.262, 432.475 292.244 C 442.653 293.392, 456.842 303.783, 461.499 313.500 C 464.004 318.726, 464.875 331.727, 462.775 332.533 C 461.981 332.837, 446.070 333.196, 427.416 333.330 C 389.232 333.604, 386.263 334.057, 378.868 340.738 C 369.891 348.848, 369.018 354.451, 369.008 404.038 C 368.997 454.823, 370.985 452.192, 331.933 453.083 C 307.462 453.642, 306.185 453.768, 302.160 456.030 C 299.015 457.798, 297.267 459.794, 295.227 463.947 L 292.500 469.500 292.500 513 C 292.500 552.627, 292.662 556.919, 294.315 561.203 C 296.725 567.450, 301.618 571.643, 307.708 572.682 C 310.344 573.132, 344.675 573.500, 384 573.500 C 460.478 573.500, 460.655 573.489, 466.298 568.491 C 470.907 564.409, 471.983 560.242, 472.955 542.715 C 473.596 531.163, 474.453 524.591, 475.934 519.860 L 478.013 513.219 475.964 506.860 C 474.483 502.263, 473.659 495.848, 472.993 483.725 C 472.329 471.665, 471.599 465.957, 470.394 463.418 C 468.749 459.952, 464.453 456.077, 460.500 454.495 C 459.400 454.055, 445.225 453.426, 429 453.098 C 395.260 452.414, 394.406 452.214, 390.250 444.015 C 388.037 439.650, 388 438.969, 388.022 403.038 C 388.042 369.729, 388.206 366.147, 389.881 362.500 C 392.066 357.742, 394.296 355.610, 399.254 353.538 C 404.170 351.484, 462.159 351.225, 463.717 353.250 C 464.246 353.938, 465.399 358.260, 466.279 362.856 C 469.102 377.602, 477.554 392.514, 489.635 404.061 C 498.047 412.101, 503.921 416.169, 513.524 420.606 C 529.779 428.117, 550.857 430.250, 568.155 426.135 C 579.009 423.553, 584.371 421.188, 594.842 414.363 L 603.437 408.760 600.854 406.630 C 599.433 405.459, 596.828 402.475, 595.065 400 C 590.411 393.468, 565.714 367.676, 557.830 361.115 C 545.042 350.472, 547.023 351.261, 530.099 350.072 C 521.707 349.482, 504.788 349, 492.502 349 C 480.216 349, 469.464 348.732, 468.609 348.403 C 466.580 347.625, 465.595 342.195, 466.874 338.833 L 467.880 336.186 487.190 335.568 C 515.396 334.665, 527 333.960, 527 333.149 C 527 332.755, 524.490 329.972, 521.423 326.966 C 518.356 323.960, 515.137 320.152, 514.270 318.504 C 512.106 314.389, 501.561 303.564, 495.500 299.235 C 492.750 297.270, 488.809 294.069, 486.742 292.121 L 482.984 288.578 481.373 290.878 C 480.012 292.821, 479.208 293.074, 476.186 292.507 C 471.100 291.553, 464.231 287.852, 459 283.247 C 451.717 276.835, 447.795 275.356, 436.298 274.685 C 422.394 273.873, 415.235 270.026, 411.865 261.553 C 409.787 256.327, 406.991 253.039, 402.666 250.735 C 398.569 248.553, 397.809 248.513, 356.500 248.353 C 333.400 248.263, 313.375 248.380, 312 248.614 M 702.500 248.897 C 693.947 250.080, 689.388 253.386, 686.445 260.537 C 684.373 265.571, 680.592 269.618, 675.500 272.252 C 672.018 274.053, 669.039 274.398, 652.500 274.911 C 634.309 275.475, 633.279 275.616, 628.309 278.229 C 617.938 283.681, 612.685 282.844, 599.771 273.682 C 581.025 260.384, 559.725 254.999, 537.488 257.936 C 523.121 259.834, 509.345 265.646, 498.520 274.375 L 495.541 276.778 499.520 281.278 C 501.709 283.752, 505.063 287.915, 506.973 290.527 C 508.883 293.139, 517.652 302.077, 526.459 310.388 C 535.267 318.700, 546.293 329.550, 550.962 334.500 C 568.642 353.243, 597.360 381.880, 601.237 384.634 C 603.456 386.210, 607.395 389.413, 609.990 391.750 C 612.584 394.087, 615.014 396, 615.388 396 C 616.881 396, 626.220 379.958, 630.154 370.636 C 634.831 359.552, 638.597 355.036, 644.688 353.212 C 647.432 352.389, 657.623 352, 676.398 352 C 699.033 352, 704.734 352.280, 707.746 353.538 C 712.704 355.610, 714.934 357.742, 717.119 362.500 C 718.764 366.081, 718.958 369.493, 718.978 395.068 C 719.002 426.427, 718.536 429.833, 713.090 438.045 C 708.973 444.256, 665.715 492.764, 660.651 496.850 C 654.801 501.570, 647.654 505, 643.668 505 C 639.611 505, 635.422 508.012, 634.776 511.393 C 633.675 517.152, 639.362 522.764, 644.846 521.330 C 648.043 520.494, 659.830 528.103, 667.032 535.653 C 678.460 547.633, 709.381 583.018, 712.641 587.847 C 718.431 596.423, 719 600.300, 719 631.214 C 719 654.014, 718.721 659.732, 717.462 662.746 C 715.390 667.704, 713.258 669.934, 708.500 672.119 C 704.878 673.782, 701.374 673.958, 671.429 673.978 L 638.359 674 632.929 671.250 C 627.573 668.537, 627.406 668.315, 620.500 654.687 C 612.481 638.862, 607.506 632.118, 598.133 624.363 C 575.234 605.415, 542.444 601.508, 515.418 614.507 C 505.787 619.140, 494.549 628.175, 488.545 636.113 C 482.758 643.764, 476.690 656.075, 474.306 665 C 471.932 673.888, 471.984 694.036, 474.404 702.942 C 481.721 729.871, 502.170 750.679, 528.691 758.183 C 539.742 761.310, 558.250 761.312, 569.291 758.188 C 593.461 751.349, 610.742 735.707, 621.381 711.039 C 623.388 706.385, 626.261 701.283, 627.765 699.700 C 633.721 693.432, 632.847 693.555, 676 692.907 C 720.542 692.238, 721.220 692.133, 728.745 684.755 C 731.080 682.466, 733.666 678.773, 734.493 676.547 C 736.971 669.877, 737.983 655.952, 737.992 628.432 C 738.001 599.043, 738.516 595.864, 744.766 586.647 C 746.820 583.618, 759.251 569.073, 772.392 554.325 C 785.533 539.577, 797.458 525.763, 798.892 523.629 C 804.724 514.950, 805.202 513.942, 804.611 511.585 C 803.906 508.778, 793.965 496.108, 782.575 483.500 C 753.690 451.526, 743.456 439.217, 740.601 433.014 C 738.671 428.823, 738.478 426.067, 737.903 394.500 C 737.518 373.375, 736.819 358.506, 736.055 355.234 C 734.402 348.144, 729.492 341.072, 724.202 338.162 C 716.059 333.682, 710.624 333.074, 678.399 333.036 C 658.393 333.012, 647.158 332.613, 644.899 331.847 C 639.425 329.990, 636.104 327.141, 633.609 322.162 C 627.286 309.542, 630.489 299.047, 642.203 294.008 C 646.646 292.097, 649.299 291.740, 659.476 291.688 C 676.208 291.601, 681.271 294.181, 686.643 305.528 C 689.778 312.148, 694.032 315.396, 701.723 317.038 C 705.249 317.792, 720.512 318.043, 748.723 317.812 C 794.704 317.435, 794.960 317.402, 800.211 311.161 C 804.776 305.736, 805.489 301.931, 805.489 283 C 805.489 264.069, 804.776 260.264, 800.211 254.839 C 794.939 248.574, 794.732 248.547, 749 248.368 C 726.175 248.279, 705.250 248.517, 702.500 248.897 M 347 488.886 C 341.381 489.767, 338.321 491.415, 337.500 493.999 C 336.508 497.126, 337.857 499.866, 341.321 501.761 C 344.127 503.296, 348.421 503.535, 377.926 503.801 C 421.897 504.197, 428.545 503.104, 427.799 495.600 C 427.578 493.386, 426.580 492.059, 424 490.549 C 420.671 488.600, 418.811 488.492, 386 488.340 C 367.025 488.252, 349.475 488.498, 347 488.886 M 484.224 506.796 C 480.712 509.499, 480.233 514.996, 483.208 518.455 C 485.616 521.255, 485.644 521.260, 497.517 521.110 C 510.782 520.942, 513.399 520.014, 514.480 515.093 C 515.171 511.944, 513.790 508.357, 511.087 506.282 C 510.053 505.488, 505.491 505.060, 498 505.054 C 488.566 505.046, 486.091 505.359, 484.224 506.796 M 535.023 507.128 C 531.838 509.777, 531.574 516.023, 534.523 518.958 C 536.259 520.685, 538.020 520.943, 548.959 521.070 L 561.419 521.215 563.812 518.432 C 566.719 515.052, 566.307 509.868, 562.895 506.909 C 560.996 505.262, 559.104 505.005, 549.097 505.033 C 538.882 505.063, 537.205 505.312, 535.023 507.128 M 587.321 506.189 C 583.987 507.800, 582.473 512.313, 584.016 516.038 C 584.708 517.709, 586.067 519.501, 587.036 520.019 C 588.005 520.538, 594.104 521.029, 600.589 521.111 C 612.224 521.258, 612.410 521.225, 614.690 518.574 C 617.739 515.029, 617.682 510.591, 614.545 507.455 C 612.219 505.129, 611.499 505.004, 600.795 505.068 C 594.583 505.105, 588.520 505.609, 587.321 506.189 M 341.819 525.496 C 336.620 528.396, 337.309 533.866, 343.128 535.895 C 344.872 536.503, 351.519 536.998, 357.899 536.996 C 367.700 536.993, 370.004 536.685, 372.750 535.011 C 376.594 532.667, 377.049 529.261, 373.898 526.405 C 372.081 524.758, 369.951 524.466, 358.148 524.250 C 347.535 524.056, 343.904 524.333, 341.819 525.496 M 1.762 1023.707 C 3.006 1023.946, 4.806 1023.937, 5.762 1023.687 C 6.718 1023.437, 5.700 1023.241, 3.500 1023.252 C 1.300 1023.263, 0.518 1023.468, 1.762 1023.707 M 13.784 1023.738 C 16.689 1023.941, 21.189 1023.939, 23.784 1023.734 C 26.378 1023.528, 24 1023.363, 18.500 1023.365 C 13 1023.368, 10.878 1023.536, 13.784 1023.738 " stroke="none" fill="black" fill-rule="evenodd"/>
</svg>